<?xml version="1.0" encoding="UTF-8" standalone="no"?>
<svg
   xmlns:dc="http://purl.org/dc/elements/1.1/"
   xmlns:cc="http://creativecommons.org/ns#"
   xmlns:rdf="http://www.w3.org/1999/02/22-rdf-syntax-ns#"
   xmlns:svg="http://www.w3.org/2000/svg"
   xmlns="http://www.w3.org/2000/svg"
   viewBox="0 0 1000 666.66669"
   height="666.66669"
   width="1000"
   xml:space="preserve"
   id="svg2"
   version="1.1"><metadata
     id="metadata8"><rdf:RDF><cc:Work
         rdf:about=""><dc:format>image/svg+xml</dc:format><dc:type
           rdf:resource="http://purl.org/dc/dcmitype/StillImage" /></cc:Work></rdf:RDF></metadata><defs
     id="defs6" /><g
     transform="matrix(1.3333333,0,0,-1.3333333,0,666.66667)"
     id="g10"><g
       transform="scale(0.1)"
       id="g12"><path
         id="path14"
         style="fill:#ffffff;fill-opacity:1;fill-rule:nonzero;stroke:none"
         d="M 0,0 H 7500 V 5000 H 0 Z" /><path
         id="path16"
         style="fill:#d5ecf2;fill-opacity:1;fill-rule:nonzero;stroke:none"
         d="m 1324.09,712.84 c -621.852,0 -1125.969,52.992 -1125.969,118.359 0,33.321 130.984,63.422 341.758,84.93 l -2.691,-48.488 -1.532,-28.039 v 0 c 0,0 114.172,-7.633 194.215,-7.633 40.02,0 71.512,1.91 75.93,7.633 0.66,0.859 0.972,1.8 0.972,2.796 -0.007,4.032 -5.109,9.122 -13.207,14.704 -30.253,20.73 -101.718,47.757 -101.718,47.757 l -13.774,23.289 c 59.082,4.352 122.321,8.133 188.977,11.25 l -3.156,-79.546 -1.09,-28.063 v 0 c 0,0 93.097,-4.75 170.085,-4.75 50.95,0 94.85,2.082 100.03,8.992 0.63,0.86 0.93,1.789 0.92,2.77 -0.02,4.039 -5.21,9.07 -13.43,14.551 -30.58,20.25 -102.46,46.148 -102.46,46.148 l -26.259,42.84 c 0,0 -0.39,-1.07 -1.203,-2.871 l 0.297,4.812 c 105.315,3.43 217.275,5.27 333.305,5.27 148.59,0 290.47,-3.02 420.35,-8.52 l 21.43,-74.269 c 0,0 256.26,24.597 266.6,43.699 1.93,3.578 -1.09,8.211 -7.28,13.348 258.91,-21.68 424.86,-55.11 424.86,-92.61 0,-65.367 -504.11,-118.359 -1125.96,-118.359 M 615.922,908.07 c -12.457,0 -25.699,5.2 -37.496,11.809 23.851,2.223 48.605,4.332 74.195,6.332 -8.039,-9.129 -19.797,-17.731 -35.726,-18.121 -0.325,-0.008 -0.645,-0.02 -0.973,-0.02" /><path
         id="path18"
         style="fill:#d5ecf2;fill-opacity:1;fill-rule:nonzero;stroke:none"
         d="m 6025.03,712.84 c -700.28,0 -1267.96,52.992 -1267.96,118.359 0,28.711 109.5,55.031 291.61,75.52 94.64,-74.5 213.94,-118.989 343.45,-118.989 151.59,0 289.21,60.95 389.64,159.649 49.54,0.891 100.03,1.519 151.45,1.871 l 7.46,-48 h 110.78 c 0,0 1.73,17.691 4.58,48.27 187.66,-0.418 365.32,-4.649 524.26,-11.891 1.13,-9.637 2.39,-15.309 3.78,-16.527 4.02,-3.582 14.85,-6.614 27.9,-9.141 l -1.69,-2.75 c 0,0 -71.88,-25.902 -102.46,-46.152 -8.22,-5.477 -13.41,-10.508 -13.43,-14.547 -0.01,-0.992 0.29,-1.91 0.92,-2.77 5.17,-6.91 49.08,-8.992 100.03,-8.992 76.98,0 170.08,4.738 170.08,4.738 v 0 0 l -1.09,28.071 -1.41,35.531 c 14.31,1.66 26.15,4.109 33.55,7.308 l 1.7,0.903 1.5,0.801 2.1,1.398 c 1.1,0.871 2.13,3.961 3.11,9.02 33.86,-2.461 66.3,-5.09 97.28,-7.86 0.17,-0.191 0.34,-0.34 0.51,-0.461 4.03,-2.758 10.97,-5.097 19.95,-7.027 -22.29,-8.934 -65.99,-27.313 -87.96,-42.363 -8.09,-5.579 -13.19,-10.668 -13.2,-14.7 -0.01,-1 0.31,-1.937 0.97,-2.8 4.42,-5.727 35.91,-7.629 75.93,-7.629 80.04,0 194.21,7.629 194.21,7.629 v 0 0 l -1.53,28.031 -1,18.109 c 128.38,-18.5 202.93,-40.558 202.93,-64.25 0,-65.367 -567.69,-118.359 -1267.95,-118.359 m -632.9,134.89 c -91.54,0 -177.36,24.922 -251.06,68.321 29.42,2.668 60.23,5.211 92.31,7.609 49.36,-18.66 102.86,-28.859 158.75,-28.871 72.55,0.012 141.07,17.199 201.73,47.742 30.63,1.039 61.78,1.957 93.45,2.778 C 5604.76,884.02 5502.6,847.73 5392.13,847.73 m 0,77.071 c -22.47,0 -44.52,1.758 -66.02,5.16 55.31,3.418 113.68,6.437 174.6,9.027 -34.62,-9.258 -71.01,-14.187 -108.58,-14.187" /><path
         id="path20"
         style="fill:#d5ecf2;fill-opacity:1;fill-rule:nonzero;stroke:none"
         d="m 3589.63,732.441 c -531.78,0 -962.88,48.61 -962.88,108.559 0,59.949 431.1,108.551 962.88,108.551 113.43,0 222.28,-2.211 323.35,-6.27 1.19,-14.109 2.63,-22.359 4.34,-23.871 5.07,-4.5 20.98,-8.14 38.47,-10.969 l -5.48,-8.941 c 0,0 -71.88,-25.898 -102.45,-46.148 -10.22,-6.813 -15.76,-12.922 -12.51,-17.321 5.17,-6.91 49.07,-8.992 100.02,-8.992 76.99,0 170.09,4.75 170.09,4.75 l -1.09,28.063 -1.77,44.449 c 15.4,2.168 27.18,5.379 32.44,9.597 1.55,1.231 3.05,6.84 4.49,16.223 51.63,-4.062 99.6,-8.68 143.16,-13.769 14.82,-6.114 45.63,-9.692 79.08,-10.493 119.81,-18.097 190.72,-40.55 190.72,-64.859 0,-59.949 -431.09,-108.559 -962.86,-108.559" /><path
         id="path22"
         style="fill:#619cd9;fill-opacity:1;fill-rule:nonzero;stroke:none"
         d="m 1250.15,2848.73 v -98.92 l -246.86,41.64 -8.325,1.45 v 171.91 l 255.185,-116.08" /><path
         id="path24"
         style="fill:#5282c6;fill-opacity:1;fill-rule:nonzero;stroke:none"
         d="m 1205.01,2757.43 -165.81,27.97 c -2.94,32.06 -6.47,64.81 -10.52,97.04 44.54,-19.13 123.98,-55.29 182.44,-82.08 -2.32,-13.91 -4.35,-28.27 -6.11,-42.93" /><path
         id="path26"
         style="fill:#f89d95;fill-opacity:1;fill-rule:nonzero;stroke:none"
         d="M 541.613,1132.29 V 895.52 l 118.903,-8.911 18.875,245.681" /><path
         id="path28"
         style="fill:#60407a;fill-opacity:1;fill-rule:nonzero;stroke:none"
         d="m 805.801,839.602 c -13.258,-17.172 -270.145,0 -270.145,0 l 1.532,28.039 4.417,79.629 c 0,0 40.872,-39.938 75.29,-39.18 34.414,0.851 49.371,40.019 49.371,40.019 l 25.582,-43.25 c 0,0 71.465,-27.027 101.718,-47.757 10.114,-6.961 15.551,-13.172 12.235,-17.5" /><path
         id="path30"
         style="fill:#513466;fill-opacity:1;fill-rule:nonzero;stroke:none"
         d="m 729.871,831.969 c -80.043,0 -194.215,7.633 -194.215,7.633 l 1.532,28.039 c 39.339,-1.532 182.531,-7.481 256.378,-10.539 8.098,-5.582 13.2,-10.672 13.207,-14.704 0,-0.996 -0.312,-1.937 -0.972,-2.796 -4.418,-5.723 -35.91,-7.633 -75.93,-7.633" /><path
         id="path32"
         style="fill:#f89d95;fill-opacity:1;fill-rule:nonzero;stroke:none"
         d="m 864.148,1124.54 3.731,-236.751 119.031,-7.027 15,245.948 -137.762,-2.17" /><path
         id="path34"
         style="fill:#60407a;fill-opacity:1;fill-rule:nonzero;stroke:none"
         d="m 1132.92,836.031 c -12.99,-17.359 -270.115,-4.242 -270.115,-4.242 l 1.09,28.063 3.164,79.679 c 0,0 41.496,-39.281 75.894,-37.98 34.402,1.39 48.738,40.789 48.738,40.789 l 26.259,-42.84 c 0,0 71.88,-25.898 102.46,-46.148 10.22,-6.813 15.75,-12.922 12.51,-17.321" /><path
         id="path36"
         style="fill:#513466;fill-opacity:1;fill-rule:nonzero;stroke:none"
         d="m 1032.89,827.039 c -76.988,0 -170.085,4.75 -170.085,4.75 l 1.09,28.063 c 39.363,-0.911 182.625,-4.614 256.515,-6.5 8.22,-5.481 13.41,-10.512 13.43,-14.551 0.01,-0.981 -0.29,-1.91 -0.92,-2.77 -5.18,-6.91 -49.08,-8.992 -100.03,-8.992" /><path
         id="path38"
         style="fill:#24315f;fill-opacity:1;fill-rule:nonzero;stroke:none"
         d="m 1040.93,1119.43 c -8.41,-7.48 -46.735,-12.57 -72.567,-15.55 -54.64,-6.2 -129.336,-2.64 -145.14,10.03 -23.285,18.61 -15.043,823.26 -15.043,823.26 0,0 -0.082,-0.76 -0.172,-2.37 -4.16,-48.02 -70.703,-817.66 -97.125,-835.68 -27.278,-18.61 -187.211,-18.61 -210.149,4.67 -23.035,23.29 3.735,989.91 33.989,1156.81 -30.336,199.53 -0.254,309.65 -0.254,309.65 139.105,-19.72 268.441,-34.41 370.84,-27.44 16.656,1.1 32.207,2.46 46.57,3.82 59.141,5.69 96.881,12.66 96.881,12.66 0,0 18.52,-1416.75 -7.83,-1439.86" /><path
         id="path40"
         style="fill:#1e284e;fill-opacity:1;fill-rule:nonzero;stroke:none"
         d="m 635.758,2340.2 -35.57,33.74 105.304,76.07 25.61,-25.15 -95.344,-84.66" /><path
         id="path42"
         style="fill:#1e284e;fill-opacity:1;fill-rule:nonzero;stroke:none"
         d="m 912.16,1100.9 c -40.32,0 -78.203,4.41 -88.937,13.01 -13.633,10.89 -16.457,291.2 -16.461,521.74 0,163.24 1.418,301.52 1.418,301.52 l 39.343,418.51 c 0,0 54.782,91.17 57.672,178.47 12.989,0.75 25.903,1.81 38.633,3.21 v 0 c 2.535,0.28 5.067,0.57 7.586,0.88 -2.879,-46.75 -13.32,-134.74 -51.113,-195.39 -6.207,-84.21 52.09,-993.21 68.062,-1238.97 -17.539,-1.99 -37.144,-2.98 -56.203,-2.98" /><path
         id="path44"
         style="fill:#68a3dd;fill-opacity:1;fill-rule:nonzero;stroke:none"
         d="m 1048.77,2559.34 c -32.18,-10.92 -67.844,-17.91 -104.942,-21.98 -186.41,-20.54 -409.348,32.89 -409.348,32.89 l -8.492,73.33 c 0,0 -6.347,0.22 -15.98,2.72 -22.473,5.78 -62.641,23.97 -78.547,81.11 -22.613,81.4 27.035,323.1 78.262,429.97 62.851,131.12 194.472,157.95 194.472,157.95 l 142.18,-6.5 c 0,0 87.32,-56.99 132.691,-180.84 45.444,-123.85 75.194,-438.67 69.704,-568.65" /><path
         id="path46"
         style="fill:#5a87c7;fill-opacity:1;fill-rule:nonzero;stroke:none"
         d="m 851.887,2532.66 c -160.574,0 -317.407,37.59 -317.407,37.59 l -8.492,73.33 9.332,23.56 c 20.989,7.39 48.93,10.37 80.356,10.37 132.863,0 328.437,-53.33 328.437,-53.33 l -0.285,-86.82 v 0 c -12.73,-1.4 -25.644,-2.46 -38.633,-3.21 -17.679,-1.03 -35.511,-1.49 -53.308,-1.49" /><path
         id="path48"
         style="fill:#5a87c7;fill-opacity:1;fill-rule:nonzero;stroke:none"
         d="M 696.945,2813.22 H 590.27 l 28.617,260.28 78.058,-260.28" /><path
         id="path50"
         style="fill:#f9a87d;fill-opacity:1;fill-rule:nonzero;stroke:none"
         d="m 667.125,2936.29 c 0,0 -105.129,205.5 -101.73,254.34 3.394,48.84 67.82,47.28 103.148,5.26 35.32,-42.01 143.344,-259.6 143.344,-259.6 H 667.125" /><path
         id="path52"
         style="fill:#f78e5f;fill-opacity:1;fill-rule:nonzero;stroke:none"
         d="m 586.027,3162.79 c -1.144,-1.19 -2.293,-2.51 -2.632,-4.13 -0.34,-1.62 0.445,-3.6 2.054,-4 1.106,-0.27 2.239,0.24 3.27,0.73 16.027,7.58 33.558,11.97 51.265,12.82 2.356,0.11 4.797,0.18 6.914,1.22 2.122,1.03 3.821,3.35 3.325,5.66 -0.344,1.59 -1.614,2.81 -2.821,3.9 -9.863,9.02 -18.738,7.6 -30.781,3.4 -11.535,-4.03 -22.148,-10.75 -30.594,-19.6" /><path
         id="path54"
         style="fill:#f78e5f;fill-opacity:1;fill-rule:nonzero;stroke:none"
         d="m 613.887,3132.4 c -7.477,-5.52 -13.387,-12.88 -18.602,-20.57 9.262,-2.08 18.82,1.12 27.66,4.59 15.219,5.95 30.086,12.81 44.5,20.52 1.297,0.69 2.789,1.77 2.567,3.22 -0.453,2.91 -8.207,7.08 -10.992,7.56 -4.497,0.77 -10.465,-1.57 -14.801,-2.6 -10.676,-2.56 -21.414,-6.11 -30.332,-12.72" /><path
         id="path56"
         style="fill:#f78e5f;fill-opacity:1;fill-rule:nonzero;stroke:none"
         d="m 642.434,3095.32 c -10.196,-7.22 -18.762,-17.56 -21.211,-29.81 12.699,8 26.277,14.61 40.406,19.68 12.476,4.48 26.68,8.77 33.023,20.41 -8.586,4.49 -16.011,6.9 -25.117,3.39 -9.426,-3.64 -18.824,-7.8 -27.101,-13.67" /><path
         id="path58"
         style="fill:#f78e5f;fill-opacity:1;fill-rule:nonzero;stroke:none"
         d="m 662.324,3056.15 c -5.621,-2.89 -10.781,-7 -13.922,-12.49 -0.597,-1.05 -1.039,-2.57 -0.082,-3.31 l 1.653,-0.37 c 5.57,0.07 11.004,1.65 16.332,3.29 9.511,2.92 18.957,6.08 28.308,9.46 3.739,1.35 7.633,2.86 10.164,5.92 l 0.356,2.51 -1.02,0.36 c -14.343,2.15 -28.726,1.37 -41.789,-5.37" /><path
         id="path60"
         style="fill:#f78e5f;fill-opacity:1;fill-rule:nonzero;stroke:none"
         d="m 677.699,3017.32 c -8.793,-5.35 -16.719,-13.15 -19.304,-23.12 8.906,2.87 17.816,5.74 26.722,8.61 9.313,3 18.633,5.99 27.774,9.48 6.363,2.42 12.906,5.27 17.199,10.56 l 1,1.99 c 0.156,1.84 -1.953,2.95 -3.727,3.45 -18.019,5.05 -34.308,-1.61 -49.664,-10.97" /><path
         id="path62"
         style="fill:#4db38f;fill-opacity:1;fill-rule:nonzero;stroke:none"
         d="m 761.406,2952.04 c 0,0 -35.968,81.84 20.66,134.88 27.868,-29.42 16.293,-122.11 16.293,-122.11 0,0 1.121,174.76 132.907,182.62 -6.282,-97.6 -18.141,-204.07 -18.141,-204.07 l -151.719,8.68" /><path
         id="path64"
         style="fill:#5ac58e;fill-opacity:1;fill-rule:nonzero;stroke:none"
         d="m 838.828,2972.65 c 0,0 -37.062,44.88 13.844,89.77 44.297,-59.53 -13.844,-89.77 -13.844,-89.77" /><path
         id="path66"
         style="fill:#5ac58e;fill-opacity:1;fill-rule:nonzero;stroke:none"
         d="m 779.359,2952.23 c 0,0 -58.117,3.35 -56.41,71.2 73.77,-8.01 56.41,-71.2 56.41,-71.2" /><path
         id="path68"
         style="fill:#302746;fill-opacity:1;fill-rule:nonzero;stroke:none"
         d="m 680.152,3461.2 c 0,0 -88.461,-8.5 -51.757,88.9 -31.207,9.46 -72.829,112.52 -50.133,154.13 22.695,41.61 118.211,17.02 118.211,17.02 0,0 37.043,104.45 145.632,97.41 116.758,-7.57 112.54,-104.97 112.54,-104.97 0,0 46.335,16.08 64.305,-17.97 24.89,-47.17 -24.591,-93.62 -24.591,-93.62 0,0 18.371,-74.71 -57.488,-66.2" /><path
         id="path70"
         style="fill:#f89d95;fill-opacity:1;fill-rule:nonzero;stroke:none"
         d="m 789.238,3260.56 c -77.433,-3.03 -85.05,54.77 -85.05,54.77 l -9.442,175.97 145.192,-57.52 3.277,-47.57 3.129,-46.15 1.179,-16.62 c 0,0 3.45,-60.49 -58.285,-62.88" /><path
         id="path72"
         style="fill:#f68380;fill-opacity:1;fill-rule:nonzero;stroke:none"
         d="m 846.344,3340.06 c -36.985,-16.62 -109.731,-4.33 -117.047,50.74 45.129,-3.46 98.961,7.81 113.918,-4.59 l 3.129,-46.15" /><path
         id="path74"
         style="fill:#f89d95;fill-opacity:1;fill-rule:nonzero;stroke:none"
         d="m 960.801,3523.54 c -0.422,-21.5 -2.383,-44.11 -6.711,-66.37 -4.082,-20.91 -10.203,-41.47 -18.953,-60.33 -29.317,-63.14 -200.203,-40.12 -234.457,-11.99 -27.188,22.44 -52.254,98.32 -35.774,143.79 -48.687,-24.9 -57.191,50.05 -32.715,66.87 24.477,16.83 41.555,-24.64 41.555,-24.64 0,0 77.582,-17.93 73.336,87.19 100.184,-107.59 185.082,-56.34 200.547,-24.48 7.055,-19.8 14.023,-62.12 13.172,-110.04" /><path
         id="path76"
         style="fill:#f46cbd;fill-opacity:1;fill-rule:nonzero;stroke:none"
         d="m 796.141,3507.29 c 0,-19.18 -15.547,-34.73 -34.735,-34.73 -19.179,0 -34.726,15.55 -34.726,34.73 0,19.17 15.547,34.73 34.726,34.73 19.188,0 34.735,-15.56 34.735,-34.73" /><path
         id="path78"
         style="fill:#f46cbd;fill-opacity:1;fill-rule:nonzero;stroke:none"
         d="m 960.801,3523.54 c -0.422,-21.5 -2.383,-44.11 -6.711,-66.37 -1.953,-0.43 -4.082,-0.59 -6.207,-0.59 -19.203,0 -34.758,15.54 -34.758,34.75 0,19.12 15.555,34.67 34.758,34.67 4.59,0 8.926,-0.85 12.918,-2.46" /><path
         id="path80"
         style="fill:#f68380;fill-opacity:1;fill-rule:nonzero;stroke:none"
         d="m 880.008,3557.04 c -16.004,0.57 -20.727,-74.56 0,-81.55 20.726,-6.99 26.375,80.61 0,81.55" /><path
         id="path82"
         style="fill:#302746;fill-opacity:1;fill-rule:nonzero;stroke:none"
         d="m 828.59,3553.03 c 0.012,-6.01 -3.047,-10.9 -6.832,-10.9 -3.789,-0.01 -6.863,4.86 -6.879,10.87 -0.012,6.01 3.051,10.89 6.836,10.9 3.785,0.01 6.863,-4.86 6.875,-10.87" /><path
         id="path84"
         style="fill:#302746;fill-opacity:1;fill-rule:nonzero;stroke:none"
         d="m 928.648,3553.22 c 0.016,-6.01 -3.046,-10.89 -6.832,-10.9 -3.789,-0.01 -6.863,4.86 -6.878,10.87 -0.008,6.02 3.05,10.9 6.835,10.91 3.786,0 6.868,-4.87 6.875,-10.88" /><path
         id="path86"
         style="fill:#fffdfe;fill-opacity:1;fill-rule:nonzero;stroke:none"
         d="m 881.074,3517.17 c -16.844,2.78 -130.695,-4.91 -151.777,-51.25 -13.399,-29.44 25.117,-86.38 104.816,-93.49 79.696,-7.11 112.184,40.15 113.5,79.33 1.325,39.17 -44.179,61.73 -66.539,65.41" /><path
         id="path88"
         style="fill:#fffdfe;fill-opacity:1;fill-rule:nonzero;stroke:none"
         d="m 777.805,3482.02 c -1.133,0 -2.258,0.45 -3.098,1.33 l -90.609,95.98 c -1.614,1.7 -1.528,4.39 0.175,6 1.707,1.6 4.391,1.53 6.004,-0.17 l 90.618,-95.98 c 1.605,-1.7 1.527,-4.39 -0.176,-6 -0.821,-0.77 -1.871,-1.16 -2.914,-1.16" /><path
         id="path90"
         style="fill:#fffdfe;fill-opacity:1;fill-rule:nonzero;stroke:none"
         d="m 736.188,3452.22 -2.563,0.87 -78.492,59.59 c -1.875,1.42 -2.238,4.09 -0.82,5.95 1.425,1.87 4.085,2.23 5.957,0.82 l 78.492,-59.59 c 1.871,-1.42 2.234,-4.09 0.812,-5.95 -0.832,-1.11 -2.101,-1.69 -3.386,-1.69" /><path
         id="path92"
         style="fill:#fffdfe;fill-opacity:1;fill-rule:nonzero;stroke:none"
         d="m 931.266,3472.7 c -1.465,0 -2.895,0.75 -3.68,2.12 -1.18,2.03 -0.481,4.63 1.551,5.8 l 32.758,18.92 c 2.023,1.17 4.625,0.48 5.804,-1.56 1.172,-2.03 0.477,-4.63 -1.554,-5.8 l -32.754,-18.92 -2.125,-0.56" /><path
         id="path94"
         style="fill:#fffdfe;fill-opacity:1;fill-rule:nonzero;stroke:none"
         d="m 958.863,3438.02 -0.601,0.04 -21.989,3.12 c -2.324,0.32 -3.933,2.48 -3.605,4.8 0.332,2.32 2.492,3.94 4.805,3.61 l 21.988,-3.12 c 2.32,-0.32 3.934,-2.48 3.605,-4.8 -0.3,-2.12 -2.117,-3.65 -4.203,-3.65" /><path
         id="path96"
         style="fill:#f68961;fill-opacity:1;fill-rule:nonzero;stroke:none"
         d="m 958.844,2607.48 c -11.469,-19.21 -251.699,-33.91 -264.106,-15.56 -2.043,3.07 -5.101,14.96 -8.586,32.64 -18.015,88.8 -50.394,324.44 -50.394,324.44 36.797,26.26 144.125,44.96 217.289,51.07 l 34.504,-35.26 6.371,37.39 c 18.269,0.25 30.168,-1.19 31.527,-4.25 6.117,-14.28 44.867,-371.35 33.395,-390.47" /><path
         id="path98"
         style="fill:#e1715c;fill-opacity:1;fill-rule:nonzero;stroke:none"
         d="m 958.844,2607.48 c -11.469,-19.21 -251.699,-33.91 -264.106,-15.56 -2.043,3.07 -5.101,14.96 -8.586,32.64 H 915.25 l -62.203,375.51 34.504,-35.26 6.371,37.39 c 18.269,0.25 30.168,-1.19 31.527,-4.25 6.117,-14.28 44.867,-371.35 33.395,-390.47" /><path
         id="path100"
         style="fill:#f89d95;fill-opacity:1;fill-rule:nonzero;stroke:none"
         d="m 752.027,2792.88 h 85.133 c 0,0 43.153,47.36 58.582,41.24 15.43,-6.12 -9.5,-41.24 -9.5,-41.24 0,0 65.871,-0.64 72.485,-9.43 9.636,-12.81 -5.797,-24.31 -5.797,-24.31 0,0 17.558,-1.94 19.511,-12.14 1.954,-10.2 -13.578,-24.49 -13.578,-24.49 0,0 11.797,-4.72 13.75,-13.86 1.953,-9.13 -13.386,-18.67 -13.386,-18.67 0,0 11.191,-7.32 5.847,-21.69 -4.769,-12.83 -193.922,15.46 -193.922,15.46 l -19.125,109.13" /><path
         id="path102"
         style="fill:#68a3dd;fill-opacity:1;fill-rule:nonzero;stroke:none"
         d="m 473.707,2813.22 c 2.574,3.08 276.277,1.1 286.481,-2.98 10.199,-4.08 28.8,-122.41 13.378,-136.69 -15.421,-14.28 -247.578,-29.97 -247.578,-29.97" /><path
         id="path104"
         style="fill:#fffdfe;fill-opacity:1;fill-rule:nonzero;stroke:none"
         d="m 787.816,3242.24 26.832,-23.49 -5.527,-6.21 -29.008,23.49 7.703,6.21" /><path
         id="path106"
         style="fill:#fffdfe;fill-opacity:1;fill-rule:nonzero;stroke:none"
         d="m 804.289,3245.69 -26.937,-33.15 6.902,-4.15 27.633,33.85 -7.598,3.45" /><path
         id="path108"
         style="fill:#302746;fill-opacity:1;fill-rule:nonzero;stroke:none"
         d="m 900.09,3604.75 c -3.527,-9.12 57.293,-35.63 62.211,-21.26 4.914,14.37 -54.649,40.84 -62.211,21.26" /><path
         id="path110"
         style="fill:#302746;fill-opacity:1;fill-rule:nonzero;stroke:none"
         d="m 788.332,3584.72 c 3.148,-9.27 66.813,9.43 61.356,23.61 -5.454,14.17 -68.122,-3.75 -61.356,-23.61" /><path
         id="path112"
         style="fill:#6e2b3f;fill-opacity:1;fill-rule:nonzero;stroke:none"
         d="m 2246.94,896.012 c -13.81,-2.731 -27.22,6.258 -29.94,20.07 L 1906.05,2467.45 c -21.46,108.89 36.06,179.41 103.98,192.8 63.76,12.57 142.36,-24.53 164.27,-135.66 2.72,-13.81 -6.27,-27.22 -20.09,-29.95 -13.81,-2.72 -27.22,6.27 -29.94,20.09 -15.21,77.18 -63.39,103.58 -104.38,95.49 -41.73,-8.22 -79.5,-53.33 -63.81,-132.91 L 2267.02,925.949 c 2.73,-13.82 -6.27,-27.219 -20.08,-29.937" /><path
         id="path114"
         style="fill:#f89d95;fill-opacity:1;fill-rule:nonzero;stroke:none"
         d="m 1891.32,2685.19 c 0,0 87.36,27.59 108.96,27.59 21.61,0 95.84,-49.62 96.94,-67.18 1.1,-17.55 -90.28,0 -90.28,0 0,0 25.38,-26.92 21.83,-34.7 -3.55,-7.77 -76.66,21.14 -76.66,21.14 l -60.79,-33.9 v 87.05" /><path
         id="path116"
         style="fill:#7172c1;fill-opacity:1;fill-rule:nonzero;stroke:none"
         d="m 1901.5,2590.15 c -46.73,-33.89 -188.27,-65.06 -236.71,-75.05 -10.41,-2.14 -16.55,-3.28 -16.55,-3.28 l 7.92,51.36 7.28,47.09 14.33,92.82 204.33,-7.78 c 0,0 15.41,-10.77 21.61,-39.81 3.36,-15.91 3.92,-37.24 -2.21,-65.35" /><path
         id="path118"
         style="fill:#6261b7;fill-opacity:1;fill-rule:nonzero;stroke:none"
         d="m 1714.18,2525.93 c -3.48,0.63 -6.98,1.25 -10.5,1.88 1.46,30.4 2.74,61.93 3.46,90.69 l 196.57,37 c 1.53,-7.27 2.49,-15.68 2.48,-25.34 -0.01,-11.48 -1.36,-24.75 -4.69,-40.01 -35.32,-25.61 -124.81,-49.68 -187.32,-64.22" /><path
         id="path120"
         style="fill:#6e2b3f;fill-opacity:1;fill-rule:nonzero;stroke:none"
         d="m 1267.84,1019.95 21.47,-180.368 c 0,0 256.86,-17.184 270.15,0 13.29,17.18 -107.76,86.367 -107.76,86.367 l 22.27,94.001 h -206.13" /><path
         id="path122"
         style="fill:#6e2b3f;fill-opacity:1;fill-rule:nonzero;stroke:none"
         d="m 1715.51,1041.28 50.36,-174.518 c 0,0 256.26,24.597 266.6,43.699 10.33,19.098 -120.32,67.789 -120.32,67.789 l 6.78,96.37 -203.42,-33.34" /><path
         id="path124"
         style="fill:#ffffff;fill-opacity:1;fill-rule:nonzero;stroke:none"
         d="m 1445.06,898.602 c -1.18,0 -2.33,0.589 -3.01,1.648 -1.06,1.66 -0.57,3.871 1.09,4.93 l 25.65,16.34 c 1.65,1.062 3.85,0.57 4.92,-1.09 1.06,-1.66 0.57,-3.871 -1.09,-4.918 l -25.65,-16.352 -1.91,-0.558" /><path
         id="path126"
         style="fill:#ffffff;fill-opacity:1;fill-rule:nonzero;stroke:none"
         d="m 1484.26,880.531 -2.08,0.668 c -1.6,1.16 -1.95,3.391 -0.8,4.992 l 11,15.219 c 1.16,1.59 3.39,1.949 4.98,0.801 1.6,-1.16 1.96,-3.379 0.81,-4.981 l -11.01,-15.218 c -0.7,-0.973 -1.79,-1.481 -2.9,-1.481" /><path
         id="path128"
         style="fill:#ffffff;fill-opacity:1;fill-rule:nonzero;stroke:none"
         d="m 1927.36,950.57 -1.41,0.289 c -1.81,0.789 -2.63,2.879 -1.86,4.7 l 9.5,21.89 c 0.78,1.813 2.87,2.653 4.69,1.86 1.8,-0.789 2.63,-2.879 1.85,-4.7 l -9.49,-21.898 c -0.58,-1.34 -1.89,-2.141 -3.28,-2.141" /><path
         id="path130"
         style="fill:#ffffff;fill-opacity:1;fill-rule:nonzero;stroke:none"
         d="m 1965.32,938.309 c -1.97,0 -3.56,1.589 -3.56,3.562 v 19.379 c 0,1.969 1.59,3.559 3.56,3.559 1.98,0 3.57,-1.59 3.57,-3.559 v -19.379 c 0,-1.973 -1.59,-3.562 -3.57,-3.562" /><path
         id="path132"
         style="fill:#f68b64;fill-opacity:1;fill-rule:nonzero;stroke:none"
         d="m 1933.46,1062.92 c -14.36,-23.28 -57.7,-36.71 -103.42,-44.44 -63.74,-10.72 -131.97,-10.37 -131.97,-10.37 L 1525.48,1827.3 1486.9,985.59 c 0,0 -120.33,-21.5 -249.16,0 -94.41,472.39 -32.2,1427.89 -32.2,1427.89 0,0 375.77,40.86 489.47,-32.21 45.03,-163.16 212.7,-1065.03 238.45,-1318.35" /><path
         id="path134"
         style="fill:#8694d2;fill-opacity:1;fill-rule:nonzero;stroke:none"
         d="m 1426.73,3049.09 c 0,0 -106.26,-6.39 -172.82,-113.75 -66.57,-107.37 -65.52,-397.29 -48.34,-521.83 184.66,-107.37 489.48,-32.21 489.48,-32.21 0,0 12.42,176.07 12.68,276.99 0.24,100.92 -38.4,296.32 -122.15,350.01 -83.74,53.67 -158.85,40.79 -158.85,40.79" /><path
         id="path136"
         style="fill:#7172c1;fill-opacity:1;fill-rule:nonzero;stroke:none"
         d="m 1516.16,2940.17 31.32,-174.79 31.32,1.73 -19.36,178.25 c 0,0 -19.4,35.47 -43.28,-5.19" /><path
         id="path138"
         style="fill:#ffffff;fill-opacity:1;fill-rule:nonzero;stroke:none"
         d="m 1426.73,3049.09 c 0,0 -5.04,-86.45 46.51,-125.1 57.74,-43.28 65.47,32.51 65.47,32.51 0,0 29.71,-51.81 52.93,-36.29 33.93,22.67 -6.06,88.09 -6.06,88.09 l -158.85,40.79" /><path
         id="path140"
         style="fill:#f89d95;fill-opacity:1;fill-rule:nonzero;stroke:none"
         d="m 1827.1,2492.18 c 0,0 89.86,18.16 106.38,19.56 16.53,1.39 34.68,-18.16 34.68,-19.56 0,-1.39 32.12,-13.97 32.12,-50.28 0,-36.3 -25.13,-47.89 -32.12,-52.57 -6.98,-4.69 -148.48,6.79 -148.48,6.79 l 7.42,96.06" /><path
         id="path142"
         style="fill:#7172c1;fill-opacity:1;fill-rule:nonzero;stroke:none"
         d="m 1835.37,2421.29 c -3.28,-14.42 -8.35,-26.89 -15.7,-33.53 -23.61,-21.47 -413.34,10.91 -459.5,55.79 -8.64,8.41 -17.98,25.54 -27.11,48.37 -46.58,117.21 -86.61,385.09 9.7,402.57 122.99,22.33 136.83,-315.61 136.83,-315.61 0,0 15.13,10.7 25.04,4.28 9.92,-6.49 0,-21.47 0,-21.47 0,0 318.18,-52.01 328.88,-60.64 7.42,-5.92 9.27,-47.51 1.86,-79.76" /><path
         id="path144"
         style="fill:#6261b7;fill-opacity:1;fill-rule:nonzero;stroke:none"
         d="m 1759.59,2380.97 c -18.64,0 -40.57,0.7 -64.42,2.02 -125.69,6.94 -304.64,31.04 -335,60.56 -8.64,8.41 -17.98,25.54 -27.11,48.37 67.47,-17.45 290.31,-74.04 443.82,-74.05 20.99,0 40.66,1.06 58.49,3.42 -2.25,-9.89 -5.34,-18.86 -9.43,-25.66 -1.88,-3.12 -3.96,-5.78 -6.27,-7.87 -5.13,-4.67 -27.6,-6.79 -60.08,-6.79" /><path
         id="path146"
         style="fill:#d07459;fill-opacity:1;fill-rule:nonzero;stroke:none"
         d="m 1698.79,1008.11 c -0.48,0 -0.72,0 -0.72,0 l -172.59,819.19 39.85,453.43 264.71,-1262.25 c -38.86,-6.53 -79.39,-8.96 -105.11,-9.85 -13.93,-0.49 -23.52,-0.52 -26.14,-0.52" /><path
         id="path148"
         style="fill:#d07459;fill-opacity:1;fill-rule:nonzero;stroke:none"
         d="m 1352.82,1995.75 c -1.8,0 -3.65,0.08 -5.53,0.23 -114.98,9.14 -107.91,135.33 -79.45,284.75 l 158.89,-19.67 c 0,0 34.37,-265.31 -73.91,-265.31" /><path
         id="path150"
         style="fill:#f89d95;fill-opacity:1;fill-rule:nonzero;stroke:none"
         d="m 1525.48,2964.81 c -77.5,0.08 -98.75,84.3 -98.75,84.3 l 12.92,133.07 142.76,-63.31 1.37,-47.67 1.27,-46.23 0.51,-16.65 c 0,0 1.7,-43.6 -60.08,-43.51" /><path
         id="path152"
         style="fill:#f68380;fill-opacity:1;fill-rule:nonzero;stroke:none"
         d="m 1585.05,3024.97 c -27.11,4.76 -81.33,21.25 -86.43,76.57 44.96,-5.27 70.71,-17.34 85.16,-30.34 l 1.27,-46.23" /><path
         id="path154"
         style="fill:#813f3f;fill-opacity:1;fill-rule:nonzero;stroke:none"
         d="m 1351.82,3291.12 c 0,0 58.06,-36.57 251.29,-44.01 193.23,-7.43 216.57,12.65 216.57,12.65 0,0 -234.27,157.68 -467.86,31.36" /><path
         id="path156"
         style="fill:#a8b6c9;fill-opacity:1;fill-rule:nonzero;stroke:none"
         d="m 1465.61,3179.22 c 0,0 -88.67,2.61 -78.64,116.51 10.04,113.9 185.66,111.25 189.79,1.13 4.12,-110.12 -111.15,-117.64 -111.15,-117.64" /><path
         id="path158"
         style="fill:#a8b6c9;fill-opacity:1;fill-rule:nonzero;stroke:none"
         d="m 1715.99,3160.33 c 0,0 55.43,30.97 61.33,92.2 5.89,61.23 -61.08,115.14 -132.48,60.68 -71.41,-54.45 71.15,-152.88 71.15,-152.88" /><path
         id="path160"
         style="fill:#f89d95;fill-opacity:1;fill-rule:nonzero;stroke:none"
         d="m 1458.13,3097.14 c 28.74,-33.73 192.99,-86.31 232.91,-29.21 52.75,75.46 57.91,184.32 51.48,223.17 -11.61,70.04 -105.99,138.65 -190.73,73.56 -1.27,-109.55 -89.82,-84.66 -89.82,-84.66 0,0 -12.65,36.05 -39.71,23.78 -27.05,-12.29 -26.53,-74.83 25.82,-58.83 -24.21,-41.86 -12.85,-120.96 10.05,-147.81" /><path
         id="path162"
         style="fill:#302746;fill-opacity:1;fill-rule:nonzero;stroke:none"
         d="m 1613.47,3240.31 c -1.04,-5.92 -4.9,-10.19 -8.63,-9.53 -3.73,0.65 -5.91,5.98 -4.87,11.9 1.04,5.92 4.9,10.19 8.64,9.54 3.73,-0.66 5.9,-5.99 4.86,-11.91" /><path
         id="path164"
         style="fill:#302746;fill-opacity:1;fill-rule:nonzero;stroke:none"
         d="m 1705.27,3224.18 c -1.04,-5.92 -4.91,-10.19 -8.64,-9.54 -3.72,0.66 -5.91,5.99 -4.87,11.91 1.05,5.93 4.91,10.19 8.64,9.54 3.73,-0.66 5.91,-5.99 4.87,-11.91" /><path
         id="path166"
         style="fill:#d1d9e2;fill-opacity:1;fill-rule:nonzero;stroke:none"
         d="m 1739.74,3197.92 c 2.19,13.78 3.57,27.01 4.3,39.17 4.02,-4.98 6.36,-10.96 6.36,-17.38 0,-8.45 -4.06,-16.13 -10.66,-21.79" /><path
         id="path168"
         style="fill:#fbcbc5;fill-opacity:1;fill-rule:nonzero;stroke:none"
         d="m 1711.96,3188.17 c -21.22,0 -38.42,14.13 -38.42,31.54 0,17.42 17.2,31.54 38.42,31.54 13.4,0 25.2,-5.63 32.08,-14.16 -0.73,-12.16 -2.11,-25.39 -4.3,-39.17 -6.99,-6.01 -16.85,-9.75 -27.78,-9.75 m -12.32,47.99 c -3.48,0 -6.9,-4.09 -7.88,-9.61 -1.04,-5.92 1.15,-11.25 4.87,-11.91 0.26,-0.04 0.51,-0.06 0.77,-0.06 3.48,0 6.9,4.08 7.87,9.6 1.04,5.92 -1.14,11.25 -4.87,11.91 -0.25,0.04 -0.51,0.07 -0.76,0.07" /><path
         id="path170"
         style="fill:#90889d;fill-opacity:1;fill-rule:nonzero;stroke:none"
         d="m 1697.4,3214.58 c -0.26,0 -0.51,0.02 -0.77,0.06 -3.72,0.66 -5.91,5.99 -4.87,11.91 0.98,5.52 4.4,9.61 7.88,9.61 0.25,0 0.51,-0.03 0.76,-0.07 3.73,-0.66 5.91,-5.99 4.87,-11.91 -0.97,-5.52 -4.39,-9.6 -7.87,-9.6" /><path
         id="path172"
         style="fill:#fbcbc5;fill-opacity:1;fill-rule:nonzero;stroke:none"
         d="m 1613.57,3204.97 c -22.34,0 -40.46,14.12 -40.46,31.53 0,17.43 18.12,31.55 40.46,31.55 22.35,0 40.47,-14.12 40.47,-31.55 0,-17.41 -18.12,-31.53 -40.47,-31.53 m -5.73,47.31 c -3.48,0 -6.9,-4.08 -7.87,-9.6 -1.04,-5.92 1.14,-11.25 4.87,-11.9 0.25,-0.05 0.51,-0.07 0.76,-0.07 3.48,0 6.9,4.09 7.87,9.6 1.04,5.92 -1.13,11.25 -4.86,11.91 -0.26,0.04 -0.51,0.06 -0.77,0.06" /><path
         id="path174"
         style="fill:#90889d;fill-opacity:1;fill-rule:nonzero;stroke:none"
         d="m 1605.6,3230.71 c -0.25,0 -0.51,0.02 -0.76,0.07 -3.73,0.65 -5.91,5.98 -4.87,11.9 0.97,5.52 4.39,9.6 7.87,9.6 0.26,0 0.51,-0.02 0.77,-0.06 3.73,-0.66 5.9,-5.99 4.86,-11.91 -0.97,-5.51 -4.39,-9.6 -7.87,-9.6" /><path
         id="path176"
         style="fill:#f68961;fill-opacity:1;fill-rule:nonzero;stroke:none"
         d="m 1780.26,3316.93 -382.55,30.72 c 0,0 1.82,17.44 5.66,39.67 2.44,13.88 5.58,29.69 9.6,44.17 5.61,20.73 12.79,38.93 21.63,45.45 62.45,46.34 259.61,27.47 302.61,-7.61 13.11,-10.72 22.26,-29.06 28.59,-49.43 6.14,-19.8 9.68,-41.57 11.75,-59.91 2.67,-24.51 2.71,-43.06 2.71,-43.06" /><path
         id="path178"
         style="fill:#9e5949;fill-opacity:1;fill-rule:nonzero;stroke:none"
         d="m 1351.82,3291.12 c 0,0 224.76,80.35 467.86,-31.36 -9.6,30.78 -39.45,57.19 -39.45,57.19 0,0 -182.31,80.18 -382.55,30.72 -27.34,-18.49 -45.86,-56.55 -45.86,-56.55" /><path
         id="path180"
         style="fill:#e1715c;fill-opacity:1;fill-rule:nonzero;stroke:none"
         d="m 1777.55,3359.99 c -144.12,71.19 -310.19,42.72 -374.18,27.33 2.44,13.88 5.58,29.69 9.6,44.17 135.55,43.71 287.12,8.28 352.83,-11.59 6.14,-19.8 9.68,-41.57 11.75,-59.91" /><path
         id="path182"
         style="fill:#4b363b;fill-opacity:1;fill-rule:nonzero;stroke:none"
         d="m 1588.88,3258.86 c -8.71,-5.54 -13.35,-16.1 -11.82,-26.89 1.43,-10.16 8.06,-17.92 17.74,-20.76 16.23,-4.75 34.31,-3.1 44.99,4.12 6.24,4.22 9.76,10.06 10.46,17.34 1.25,12.98 -6.66,20.72 -13.52,24.92 -14.24,8.73 -35.25,9.29 -47.85,1.27 z m 24.79,-58.86 c -7,0 -14.25,1 -21.26,3.06 -12.97,3.81 -21.85,14.17 -23.77,27.72 -1.99,14.09 4.16,27.93 15.68,35.25 15.36,9.77 39.8,9.25 56.85,-1.19 12.61,-7.73 18.84,-19.44 17.53,-32.98 -0.94,-9.79 -5.83,-17.94 -14.15,-23.57 -8.07,-5.45 -19.12,-8.29 -30.88,-8.29" /><path
         id="path184"
         style="fill:#4b363b;fill-opacity:1;fill-rule:nonzero;stroke:none"
         d="m 1707.7,3248.14 c -5.21,0 -10.21,-1 -14.45,-3.07 -9,-4.4 -14.8,-14.46 -14.77,-25.64 0.02,-10.17 4.83,-18.34 13.2,-22.39 13.74,-6.66 29.65,-7.64 40.52,-2.48 6.93,3.28 11.35,8.77 13.15,16.31 3.42,14.32 -4.96,23.57 -10.26,27.81 -7.66,6.14 -17.89,9.46 -27.39,9.46 z m 8.39,-65.32 c -9.26,0 -19.13,2.22 -28.12,6.56 -11.24,5.45 -17.97,16.68 -17.99,30.04 -0.03,14.4 7.64,27.46 19.53,33.28 14.99,7.33 36.39,4.22 50.9,-7.38 11.68,-9.36 16.5,-22.63 13.2,-36.42 -2.39,-10.03 -8.54,-17.64 -17.76,-22.02 -5.74,-2.72 -12.56,-4.06 -19.76,-4.06" /><path
         id="path186"
         style="fill:#4b363b;fill-opacity:1;fill-rule:nonzero;stroke:none"
         d="m 1674.57,3224.75 c -7.76,1.8 -17.34,3.58 -19.4,3.32 l -1.41,8.38 c 4.11,0.72 17.29,-2.15 22.74,-3.42 l -1.93,-8.28" /><path
         id="path188"
         style="fill:#4b363b;fill-opacity:1;fill-rule:nonzero;stroke:none"
         d="m 1583.13,3256.63 -1.23,0.18 -119.09,36.13 c -2.24,0.68 -3.51,3.06 -2.83,5.3 0.68,2.25 3.04,3.53 5.29,2.84 l 119.09,-36.13 c 2.25,-0.69 3.52,-3.06 2.83,-5.3 -0.55,-1.84 -2.24,-3.02 -4.06,-3.02" /><path
         id="path190"
         style="fill:#fffdfe;fill-opacity:1;fill-rule:nonzero;stroke:none"
         d="m 1658.87,3195.83 c -16.1,5.68 -106.84,-5 -125.07,-31.73 -18.22,-26.72 -23.72,-81.62 53.51,-102.57 77.22,-20.94 117.48,19.91 125.63,58.25 8.15,38.34 -32.69,68.51 -54.07,76.05" /><path
         id="path192"
         style="fill:#fffdfe;fill-opacity:1;fill-rule:nonzero;stroke:none"
         d="m 1574.63,3177.93 c -1.06,0 -2.13,0.4 -2.95,1.2 l -104.31,101 c -1.69,1.64 -1.73,4.32 -0.1,6.01 1.64,1.7 4.32,1.73 6.01,0.1 l 104.3,-101 c 1.69,-1.64 1.74,-4.33 0.11,-6.01 -0.84,-0.87 -1.95,-1.3 -3.06,-1.3" /><path
         id="path194"
         style="fill:#fffdfe;fill-opacity:1;fill-rule:nonzero;stroke:none"
         d="m 1541.83,3150.72 -1.94,0.47 -115.1,59.08 c -2.08,1.07 -2.91,3.64 -1.83,5.73 1.06,2.08 3.62,2.9 5.71,1.83 l 115.11,-59.08 c 2.09,-1.07 2.91,-3.63 1.84,-5.72 -0.76,-1.46 -2.24,-2.31 -3.79,-2.31" /><path
         id="path196"
         style="fill:#fffdfe;fill-opacity:1;fill-rule:nonzero;stroke:none"
         d="m 1701.25,3143.18 c -1.74,0 -3.37,1.07 -4,2.81 -0.79,2.2 0.34,4.64 2.55,5.44 l 35.56,12.9 c 2.2,0.77 4.65,-0.34 5.44,-2.55 0.8,-2.21 -0.34,-4.65 -2.55,-5.45 l -35.55,-12.89 -1.45,-0.26" /><path
         id="path198"
         style="fill:#fffdfe;fill-opacity:1;fill-rule:nonzero;stroke:none"
         d="m 1722.35,3104.22 -1.32,0.21 -21.11,6.91 c -2.22,0.73 -3.44,3.13 -2.71,5.36 0.73,2.23 3.12,3.47 5.36,2.71 l 21.11,-6.91 c 2.22,-0.73 3.44,-3.13 2.71,-5.36 -0.58,-1.79 -2.25,-2.92 -4.04,-2.92" /><path
         id="path200"
         style="fill:#ffffff;fill-opacity:1;fill-rule:nonzero;stroke:none"
         d="m 1595.4,3283.18 c 0,0 32.05,5.1 47.77,-3.42 0,19.14 -35.5,25.73 -47.77,3.42" /><path
         id="path202"
         style="fill:#ffffff;fill-opacity:1;fill-rule:nonzero;stroke:none"
         d="m 1701.25,3274.38 c 0,0 27.76,-5.36 35.56,-14.62 -0.63,26.57 -28.39,25.94 -35.56,14.62" /><path
         id="path204"
         style="fill:#b9ddeb;fill-opacity:1;fill-rule:nonzero;stroke:none"
         d="m 2078.52,4303.12 c 0,0 -105.77,57.64 -162.95,-34.17 40.68,114.21 126.78,90.02 154.08,60.02 74.46,108.8 133.01,-2.8 133.01,-2.8 0,0 -76.73,62.74 -124.14,-23.05" /><path
         id="path206"
         style="fill:#b9ddeb;fill-opacity:1;fill-rule:nonzero;stroke:none"
         d="m 5687.49,3696.12 c 0,0 -105.76,57.63 -162.95,-34.18 40.68,114.22 126.78,90.03 154.08,60.03 74.46,108.8 133.01,-2.8 133.01,-2.8 0,0 -76.73,62.74 -124.14,-23.05" /><path
         id="path208"
         style="fill:#b9ddeb;fill-opacity:1;fill-rule:nonzero;stroke:none"
         d="m 1898.16,4071.29 c 0,0 -50.82,133.83 -123.04,-1.59 59.86,45.37 87.9,54.36 117.46,-32.73 64.34,96.99 122.61,4.76 122.61,4.76 0,0 -31.81,121.13 -117.03,29.56" /><path
         id="path210"
         style="fill:#b9ddeb;fill-opacity:1;fill-rule:nonzero;stroke:none"
         d="m 5169.88,4256.59 c 0,0 -50.83,133.84 -123.04,-1.59 59.86,45.38 87.9,54.37 117.46,-32.71 64.34,96.98 122.61,4.75 122.61,4.75 0,0 -31.81,121.13 -117.03,29.55" /><path
         id="path212"
         style="fill:#b9ddeb;fill-opacity:1;fill-rule:nonzero;stroke:none"
         d="m 2627.42,2669.02 c 0,0 -242.32,-40.99 -143.99,262.47 -136.49,66.91 -147.34,369.56 6.53,554.79 -115.48,103.27 -7.31,445.72 162.37,477.17 254.3,47.13 191.58,-342.43 191.58,-342.43 0,0 143.32,-190.08 41.63,-506.58 145.46,-210.47 -44.99,-533.71 -258.12,-445.42" /><path
         id="path214"
         style="fill:#a4bde6;fill-opacity:1;fill-rule:nonzero;stroke:none"
         d="m 2795.48,3497.76 -15.12,30.1 c 0,0 -67.08,-80.57 -100.21,-120.98 l -5.3,308.9 -24.5,-0.34 -13.75,-673.91 -87.63,165.07 -16.51,-14.82 102.11,-250.13 -34.05,-1669.55 116.2,1.58 -35.06,2045.1 113.82,178.98" /><path
         id="path216"
         style="fill:#b9ddeb;fill-opacity:1;fill-rule:nonzero;stroke:none"
         d="m 2990.52,1209.97 h -763.33 c 0,0 89.92,142.67 197.08,71.34 23.69,185.78 198.15,168.21 231.95,48.44 150.67,179.08 270.23,-38.11 270.23,-38.11 0,0 122.5,45.18 64.07,-81.67" /><path
         id="path218"
         style="fill:#b9ddeb;fill-opacity:1;fill-rule:nonzero;stroke:none"
         d="m 2439.77,1250.69 c 0,0 -111.61,77.12 -85.22,264.35 94.98,-120.46 85.22,-264.35 85.22,-264.35" /><path
         id="path220"
         style="fill:#f89d95;fill-opacity:1;fill-rule:nonzero;stroke:none"
         d="m 5768.03,2567.05 c 0,0 48.6,40.77 59.51,48.17 10.9,7.42 68.34,22.24 90.58,22.24 22.23,0 42.61,-14.82 46.31,-24.09 3.71,-9.26 -51.88,-24.8 -51.88,-24.8 0,0 9.27,-24.37 -1.85,-30.35 -11.11,-5.99 -101.9,-83.43 -101.9,-83.43 l -40.77,92.26" /><path
         id="path222"
         style="fill:#4db38f;fill-opacity:1;fill-rule:nonzero;stroke:none"
         d="m 5827.49,2474.8 c 4.39,-4 -291.21,-199 -302.7,-203.4 -11.5,-4.4 -74.31,57.4 -74.31,57.4 l -52.6,103.7 -128.29,253.1 c 39.86,84.02 276.4,-196.7 276.4,-196.7 l 233,99.7 c 0,0 9.3,-23 19.69,-48.5 12.4,-29.9 26.4,-63.1 28.81,-65.3" /><path
         id="path224"
         style="fill:#42907b;fill-opacity:1;fill-rule:nonzero;stroke:none"
         d="m 5523.42,2271.17 c -9.72,0 -39.67,26.38 -58.03,43.44 0.11,17.56 0.18,34.02 0.21,48.51 0.1,42.2 -6.6,101 -20.6,159.11 -2.73,11.29 -5.73,22.56 -9.01,33.66 l 109.99,-153.57 252.7,137.78 c 12.4,-29.9 26.4,-63.1 28.81,-65.3 0.03,-0.03 0.05,-0.07 0.04,-0.12 -0.25,-6.91 -291.33,-198.91 -302.74,-203.28 -0.4,-0.15 -0.85,-0.23 -1.37,-0.23" /><path
         id="path226"
         style="fill:#dbe0e5;fill-opacity:1;fill-rule:nonzero;stroke:none"
         d="m 5194.49,2812.08 c 0,0 -58.69,-25.92 -74.81,35.34 -48.37,-22.57 -91.9,68.2 -59.65,92.95 -61.27,21.52 -43.54,131.94 9.67,118.65 -41.92,80.23 52.87,178.58 118.34,122.15 29.99,74.16 83.17,8.06 83.17,8.06 0,0 11.31,79 83.86,67.71 72.56,-11.28 75.48,-79 75.48,-79 0,0 56.73,22.57 85.75,-27.41 29.02,-49.98 -25.8,-106.02 -25.8,-106.02 0,0 56.3,-87.01 -58.73,-87.45 -49.29,-29.02 -237.28,-144.98 -237.28,-144.98" /><path
         id="path228"
         style="fill:#1f2b55;fill-opacity:1;fill-rule:nonzero;stroke:none"
         d="m 5975.59,1890.03 c 0,0 143.94,-100.9 159.03,-124.74 30.51,-48.18 197.04,-809.11 197.04,-809.11 l -109.79,-44.36 -232.98,607.28" /><path
         id="path230"
         style="fill:#60407a;fill-opacity:1;fill-rule:nonzero;stroke:none"
         d="m 4894.15,2433.57 172.71,8.53 45.22,-541.89 -178.76,-86.26 -39.17,619.62" /><path
         id="path232"
         style="fill:#60407a;fill-opacity:1;fill-rule:nonzero;stroke:none"
         d="m 4954.66,1766.38 v -130.49 h 871.65 v 106.82 H 5091 l -33.04,147.32 -103.3,-123.65" /><path
         id="path234"
         style="fill:#24315f;fill-opacity:1;fill-rule:nonzero;stroke:none"
         d="m 4989.94,2136.94 c 0,0 -40.14,-401.4 111.5,-428.16 151.64,-26.77 716.46,-17.84 716.46,-17.84 l 122.78,-789.69 h 110.78 c 0,0 84.71,865.51 44.58,954.71 -40.15,89.2 -645.57,204.58 -645.57,204.58 l -7.62,76.4 h -452.91" /><path
         id="path236"
         style="fill:#5ac58e;fill-opacity:1;fill-rule:nonzero;stroke:none"
         d="m 5465.6,2363.12 c -0.2,-100.89 -2.6,-297 -2.6,-297 0,0 -241.8,-34.1 -485.1,-85.3 -1.78,230.63 -124.72,672.81 150.8,758.8 h 0.1 c 32,12.9 55.8,14.31 55.8,14.31 0,0 75.2,12.9 158.9,-40.8 15.2,-9.71 28.9,-24.11 41,-41.7 27.1,-38.91 47.1,-93.71 60.5,-149.2 14,-58.11 20.7,-116.91 20.6,-159.11" /><path
         id="path238"
         style="fill:#f78e5f;fill-opacity:1;fill-rule:nonzero;stroke:none"
         d="m 5335.4,2402.32 c -158.2,133.3 -197.1,276.61 -206.6,337.3 32,12.9 55.8,14.31 55.8,14.31 0,0 75.2,12.9 158.9,-40.81 15.2,-9.7 28.9,-24.1 41,-41.69 1,-61.3 -7.8,-153.71 -49.1,-269.11" /><path
         id="path240"
         style="fill:#f89d95;fill-opacity:1;fill-rule:nonzero;stroke:none"
         d="m 5309.44,2558.22 c -141.29,88.24 -136.26,200.21 -136.26,200.21 l 10.63,133.27 143.83,-60.85 2.17,-47.64 2.07,-46.2 0.79,-16.65 c 0,0 4.56,-95.15 -23.23,-162.14" /><path
         id="path242"
         style="fill:#f68380;fill-opacity:1;fill-rule:nonzero;stroke:none"
         d="m 5331.88,2737.01 c -27.19,4.29 -81.68,19.85 -87.72,75.07 45.04,-4.5 70.98,-16.12 85.65,-28.87 l 2.07,-46.2" /><path
         id="path244"
         style="fill:#f89d95;fill-opacity:1;fill-rule:nonzero;stroke:none"
         d="m 5225.27,2780.49 c 38.64,-21.7 210.94,-14.25 228.65,53.11 23.42,89.06 -3.45,203.37 -27.57,244.29 -57.45,-33.38 -164.82,9.41 -234.52,-26.38 36.68,-103.23 -26.16,-98.1 -26.16,-98.1 0,0 -24.34,29.46 -45.48,8.58 -21.15,-20.88 0.97,-79.38 44.56,-46.28 -8.25,-47.64 29.76,-117.93 60.52,-135.22" /><path
         id="path246"
         style="fill:#f68380;fill-opacity:1;fill-rule:nonzero;stroke:none"
         d="m 5373.61,2979.94 c -13.14,1.05 -16.02,-66.87 0,-68.76 16.01,-1.88 23.54,66.87 0,68.76" /><path
         id="path248"
         style="fill:#302746;fill-opacity:1;fill-rule:nonzero;stroke:none"
         d="m 5321.54,2968.54 c 1.08,-5.91 -1.07,-11.25 -4.8,-11.93 -3.73,-0.67 -7.61,3.58 -8.69,9.49 -1.07,5.92 1.09,11.26 4.81,11.93 3.73,0.68 7.61,-3.57 8.68,-9.49" /><path
         id="path250"
         style="fill:#302746;fill-opacity:1;fill-rule:nonzero;stroke:none"
         d="m 5413.26,2985.14 c 1.07,-5.91 -1.08,-11.25 -4.81,-11.93 -3.72,-0.68 -7.61,3.58 -8.68,9.49 -1.07,5.92 1.08,11.26 4.81,11.93 3.72,0.68 7.61,-3.57 8.68,-9.49" /><path
         id="path252"
         style="fill:#fffdfe;fill-opacity:1;fill-rule:nonzero;stroke:none"
         d="m 5379.53,2942.5 c -17.07,-0.23 -98.53,-41.63 -106.39,-73.01 -7.87,-31.37 5.96,-84.79 85.66,-77.75 79.7,7.05 103.35,59.3 97.75,98.09 -5.6,38.79 -54.37,52.98 -77.02,52.67" /><path
         id="path254"
         style="fill:#fffdfe;fill-opacity:1;fill-rule:nonzero;stroke:none"
         d="m 5306.66,2896.59 c -0.99,-0.37 -2.13,-0.37 -3.18,0.09 l -132.8,58.72 c -2.14,0.95 -3.11,3.46 -2.16,5.61 0.94,2.15 3.45,3.11 5.6,2.16 l 132.79,-58.71 c 2.15,-0.95 3.12,-3.46 2.17,-5.6 -0.49,-1.1 -1.38,-1.89 -2.42,-2.27" /><path
         id="path256"
         style="fill:#fffdfe;fill-opacity:1;fill-rule:nonzero;stroke:none"
         d="m 5285.29,2859.71 -1.98,-0.23 -128.43,15.65 c -2.33,0.29 -3.98,2.4 -3.7,4.73 0.29,2.33 2.4,3.98 4.73,3.71 l 128.43,-15.65 c 2.33,-0.28 3.99,-2.4 3.71,-4.74 -0.2,-1.63 -1.31,-2.94 -2.76,-3.47" /><path
         id="path258"
         style="fill:#fffdfe;fill-opacity:1;fill-rule:nonzero;stroke:none"
         d="m 5437.49,2907.75 c -1.63,-0.6 -3.53,-0.16 -4.72,1.25 -1.51,1.79 -1.29,4.47 0.51,5.99 l 28.9,24.39 c 1.81,1.49 4.48,1.29 6,-0.51 1.5,-1.79 1.28,-4.47 -0.51,-5.99 l -28.91,-24.39 -1.27,-0.74" /><path
         id="path260"
         style="fill:#fffdfe;fill-opacity:1;fill-rule:nonzero;stroke:none"
         d="m 5470.76,2878.49 -1.31,-0.27 -22.2,-0.81 c -2.34,-0.08 -4.31,1.75 -4.4,4.09 -0.09,2.35 1.73,4.34 4.09,4.41 l 22.2,0.81 c 2.35,0.08 4.31,-1.75 4.4,-4.1 0.07,-1.88 -1.1,-3.52 -2.78,-4.13" /><path
         id="path262"
         style="fill:#ffffff;fill-opacity:1;fill-rule:nonzero;stroke:none"
         d="m 5289.76,3002.53 c 0,0 28.32,15.85 46.01,13.3 -6.62,17.95 -42.21,11.87 -46.01,-13.3" /><path
         id="path264"
         style="fill:#ffffff;fill-opacity:1;fill-rule:nonzero;stroke:none"
         d="m 5392.13,3030.86 c 0,0 27.91,4.56 38.42,-1.43 -9.77,24.72 -35.6,14.53 -38.42,1.43" /><path
         id="path266"
         style="fill:#302746;fill-opacity:1;fill-rule:nonzero;stroke:none"
         d="m 5914.1,935.301 7.29,-109.93 c 0,0 256.86,-17.18 270.15,0 13.29,17.18 -107.76,86.371 -107.76,86.371 l -2.48,40.778 -167.2,-17.219" /><path
         id="path268"
         style="fill:#302746;fill-opacity:1;fill-rule:nonzero;stroke:none"
         d="M 6185.22,961.648 6211.5,854.66 c 0,0 255.94,27.719 266.04,46.949 10.1,19.223 -121.14,66.321 -121.14,66.321 l -9.52,39.73 -161.66,-46.012" /><path
         id="path270"
         style="fill:#a8c0cf;fill-opacity:1;fill-rule:nonzero;stroke:none"
         d="m 5914.13,1700.4 c -11.07,0 -21.71,6.15 -26.94,16.75 -4.39,8.71 -113.17,236.14 -476.64,236.14 -362.36,0 -455,-185.24 -455.89,-186.91 -6.32,-11.79 -19.73,-18.12 -32.83,-15.3 -13.08,2.83 -22.78,13.84 -23.68,27.2 l -41.35,613.82 h -114.94 c -16.57,0 -30,13.43 -30,30 0,16.57 13.43,30 30,30 h 142.99 c 15.79,0 28.87,-12.24 29.93,-27.99 l 38.27,-568.08 c 64.53,58.56 199.29,157.26 457.5,157.26 402.77,0 525.44,-259.42 530.46,-269.62 7.33,-14.85 1.22,-32.84 -13.64,-40.16 -4.27,-2.11 -8.79,-3.11 -13.24,-3.11" /><path
         id="path272"
         style="fill:#f9a87d;fill-opacity:1;fill-rule:nonzero;stroke:none"
         d="m 4551.54,2459.24 c -14.67,-8.81 -10.49,-70.86 5.25,-77.42 15.75,-6.57 208.65,-21.43 221.77,-4.82 13.13,16.62 9.19,84.87 -5.25,94.04 -14.43,9.19 -202.08,0 -221.77,-11.8" /><path
         id="path274"
         style="fill:#a8c0cf;fill-opacity:1;fill-rule:nonzero;stroke:none"
         d="m 5392.13,1840.21 c -273.62,0 -496.24,-222.61 -496.24,-496.23 0,-273.63 222.62,-496.25 496.24,-496.25 273.62,0 496.24,222.62 496.24,496.25 0,273.62 -222.62,496.23 -496.24,496.23 m 0,-1052.48 c -306.71,0 -556.24,249.54 -556.24,556.25 0,306.7 249.53,556.23 556.24,556.23 306.71,0 556.23,-249.53 556.23,-556.23 0,-306.71 -249.52,-556.25 -556.23,-556.25" /><path
         id="path276"
         style="fill:#1f2b55;fill-opacity:1;fill-rule:nonzero;stroke:none"
         d="m 5826.32,1343.98 h 14.99 c -0.01,248.08 -201.1,449.18 -449.18,449.18 -248.09,-0.01 -449.18,-201.1 -449.19,-449.18 0.01,-248.09 201.1,-449.171 449.19,-449.191 248.08,0.012 449.17,201.101 449.18,449.191 h -14.99 -15 c -0.01,-115.81 -46.9,-220.51 -122.78,-296.41 -75.91,-75.879 -180.61,-122.769 -296.41,-122.769 -115.8,0 -220.5,46.89 -296.41,122.769 -75.88,75.9 -122.77,180.6 -122.77,296.41 0,115.8 46.89,220.5 122.77,296.41 75.91,75.88 180.61,122.77 296.41,122.77 115.8,0 220.5,-46.89 296.41,-122.77 75.88,-75.91 122.77,-180.61 122.78,-296.41 h 15" /><path
         id="path278"
         style="fill:#f9a87d;fill-opacity:1;fill-rule:nonzero;stroke:none"
         d="m 5610.5,1343.98 c 0,120.6 -97.77,218.36 -218.37,218.36 -120.61,0 -218.37,-97.76 -218.37,-218.36 0,-120.61 97.76,-218.37 218.37,-218.37 120.6,0 218.37,97.76 218.37,218.37" /><path
         id="path280"
         style="fill:#d88c6d;fill-opacity:1;fill-rule:nonzero;stroke:none"
         d="m 5392.13,1233.95 c -60.77,0 -110.04,49.25 -110.04,110.03 0,60.77 49.27,110.03 110.04,110.03 60.77,0 110.03,-49.26 110.03,-110.03 0,-60.78 -49.26,-110.03 -110.03,-110.03" /><path
         id="path282"
         style="fill:#f89d95;fill-opacity:1;fill-rule:nonzero;stroke:none"
         d="m 5524.78,2153.53 c 0,0 102.02,-54.05 129.04,-78.62 27.03,-24.57 10.68,-88.42 -8.17,-81.06 -18.85,7.36 -156.44,58.95 -156.44,58.95 l 35.57,100.73" /><path
         id="path284"
         style="fill:#4db38f;fill-opacity:1;fill-rule:nonzero;stroke:none"
         d="m 5545.99,2167.2 -19.5,-59.1 -24.31,-74 -480.89,102.8 c 0,0 -20.21,116.8 -25.5,236.8 -5.41,123.5 5,250.4 69.39,257.1 152.6,15.8 149.2,-339.5 149.2,-339.5 l 331.61,-124.1" /><path
         id="path286"
         style="fill:#42907b;fill-opacity:1;fill-rule:nonzero;stroke:none"
         d="m 5502.18,2034.1 -104.31,22.3 -376.58,80.5 c 0,0 -20.21,116.8 -25.5,236.8 l 90.9,-164.5 439.8,-101.1 -20.26,-61.68 -4.05,-12.32" /><path
         id="path288"
         style="fill:#1f2b55;fill-opacity:1;fill-rule:nonzero;stroke:none"
         d="m 6731.15,3783.78 c 0,0 -56.72,107.93 34.6,150.82 91.32,42.9 224.15,-78.86 171.57,-189.56 -52.58,-110.69 -157.34,-29.05 -157.34,-29.05" /><path
         id="path290"
         style="fill:#f89d95;fill-opacity:1;fill-rule:nonzero;stroke:none"
         d="m 6109.68,2724.96 c 0,0 -83.05,-24.91 -96.16,-32.08 -13.12,-7.18 -54.64,-41.05 -59.02,-54.16 -4.37,-13.12 10.93,-27.32 27.33,-29.51 16.38,-2.18 80.86,32.78 80.86,32.78 0,0 -3.28,-15.3 9.84,-17.48 13.11,-2.19 66.66,17.48 66.66,17.48 l -29.51,82.97" /><path
         id="path292"
         style="fill:#967ac4;fill-opacity:1;fill-rule:nonzero;stroke:none"
         d="m 6729.77,3803.16 c 0,0 50.56,27.89 82.16,-7.34 36.84,-41.09 -6.19,-79.83 -6.19,-79.83" /><path
         id="path294"
         style="fill:#7172c1;fill-opacity:1;fill-rule:nonzero;stroke:none"
         d="m 6632.78,2697.5 c -0.9,-1.7 -1.89,-3.2 -2.9,-4.6 -52.79,-68.4 -506.29,-61.6 -506.29,-61.6 l -10.91,47.2 -10.8,46.5 301.5,134.5 c 0,0 26.61,150.1 59,247.6 32.41,97.6 111.2,183.4 111.2,183.4 0,0 104.81,-508.4 59.2,-593" /><path
         id="path296"
         style="fill:#6261b7;fill-opacity:1;fill-rule:nonzero;stroke:none"
         d="m 6157.09,2631.11 c -21.05,0 -33.5,0.19 -33.5,0.19 l -1.13,4.88 -9.78,42.32 458.31,188.3 61.79,-169.3 c -0.9,-1.7 -1.89,-3.2 -2.9,-4.6 -44.04,-57.06 -366.92,-61.79 -472.79,-61.79" /><path
         id="path298"
         style="fill:#1f2b55;fill-opacity:1;fill-rule:nonzero;stroke:none"
         d="m 6459.63,3592.55 c 0,0 -86.46,38.37 -79.25,114.65 9.16,97.01 133.68,185.9 293.51,97.37 139.44,80.65 249.03,-212.87 81.22,-295.89 -103.58,-24.8 -295.48,83.87 -295.48,83.87" /><path
         id="path300"
         style="fill:#f89d95;fill-opacity:1;fill-rule:nonzero;stroke:none"
         d="M 7086.63,1142 V 905.219 L 6967.72,896.32 6948.85,1142 h 137.78" /><path
         id="path302"
         style="fill:#6e2b3f;fill-opacity:1;fill-rule:nonzero;stroke:none"
         d="m 6822.44,849.309 c 13.25,-17.168 270.14,0 270.14,0 l -1.53,28.031 -4.42,79.629 c 0,0 -40.87,-39.938 -75.29,-39.18 -34.42,0.852 -49.37,40.031 -49.37,40.031 l -25.58,-43.25 c 0,0 -71.46,-27.031 -101.72,-47.761 -10.11,-6.969 -15.55,-13.18 -12.23,-17.5" /><path
         id="path304"
         style="fill:#5d2335;fill-opacity:1;fill-rule:nonzero;stroke:none"
         d="m 6898.37,841.68 c -40.02,0 -71.51,1.902 -75.93,7.629 -0.66,0.863 -0.98,1.8 -0.97,2.8 0.01,4.032 5.11,9.121 13.2,14.7 73.85,3.05 217.04,9.011 256.38,10.531 l 1.53,-28.031 c 0,0 -114.17,-7.629 -194.21,-7.629" /><path
         id="path306"
         style="fill:#f89d95;fill-opacity:1;fill-rule:nonzero;stroke:none"
         d="m 6764.09,1134.25 -3.73,-236.75 -119.03,-7.031 -15.01,245.951 137.77,-2.17" /><path
         id="path308"
         style="fill:#6e2b3f;fill-opacity:1;fill-rule:nonzero;stroke:none"
         d="m 6495.32,845.742 c 12.99,-17.363 270.11,-4.254 270.11,-4.254 l -1.09,28.071 -3.16,79.683 c 0,0 -41.5,-39.293 -75.9,-37.98 -34.39,1.386 -48.74,40.789 -48.74,40.789 l -26.25,-42.84 c 0,0 -71.88,-25.902 -102.46,-46.152 -10.22,-6.809 -15.75,-12.918 -12.51,-17.317" /><path
         id="path310"
         style="fill:#5d2335;fill-opacity:1;fill-rule:nonzero;stroke:none"
         d="m 6595.35,836.75 c -50.95,0 -94.86,2.082 -100.03,8.992 -0.63,0.86 -0.93,1.778 -0.92,2.77 0.02,4.039 5.21,9.07 13.43,14.547 73.88,1.89 217.15,5.582 256.51,6.5 l 1.09,-28.071 c 0,0 -93.1,-4.738 -170.08,-4.738" /><path
         id="path312"
         style="fill:#1f2b55;fill-opacity:1;fill-rule:nonzero;stroke:none"
         d="m 7112.78,920.801 c -7.7,-7.699 -30.49,-12.903 -58.7,-15.602 -56.2,-5.5 -133.29,-1.398 -151.4,11 -26.5,18 -78.3,980.301 -82.5,1028.301 -0.1,1.6 -0.1,2.4 -0.1,2.4 0,0 5,-1012.798 -18.3,-1031.4 l -2.1,-1.398 -1.5,-0.801 -1.7,-0.903 c -15.49,-6.699 -50.39,-10.097 -86.8,-9.898 -17.99,0.102 -36.39,1.102 -52.99,3 -25.9,3 -64.2,8.102 -72.61,15.602 -15.4,13.5 -14.4,571.498 -11,1034.398 0.1,16.1 0.31,32.1 0.41,48 0.09,8.01 0.09,15.9 0.19,23.7 0.2,15.6 0.31,31.2 0.4,46.6 0.71,69.1 1.3,134.5 1.91,193.8 0.1,13.2 0.29,26.1 0.39,38.6 1.7,157.4 3.1,262.8 3.1,262.8 0,0 37.7,-7 96.9,-12.7 13.7,-1.2 28.61,-2.6 44.41,-3.6 l 2.09,-0.2 c 102.4,-7 231.8,27.7 370.9,47.4 0,0 27.3,-91.7 31.01,-328.7 2.7,-15 5.09,-37.9 6.99,-67.4 19.8,-298.61 1.9,-1261.8 -19,-1282.999" /><path
         id="path314"
         style="fill:#1b2345;fill-opacity:1;fill-rule:nonzero;stroke:none"
         d="m 6712.65,902.488 c -0.99,0 -1.97,0 -2.97,0.012 v 0 l -58.1,1053 h -78.5 c 0.1,16.1 0.31,32.1 0.41,48 0.09,7.9 0.09,15.8 0.19,23.7 0.2,15.6 0.31,31.2 0.4,46.6 0.71,69.1 1.3,134.5 1.91,193.8 0.1,13.2 0.29,26.1 0.39,38.6 l 118.8,74.8 87.81,-40 17.8,-188.6 330.99,51.4 c 6.06,-91.27 8.58,-244.64 8.58,-414.22 0,-385.2 -13.07,-854.06 -27.58,-868.779 -7.7,-7.699 -30.49,-12.903 -58.7,-15.602 V 1946.9 h -234 c 0,0 0.45,-91.03 0.45,-219.01 0,-0.21 0,-0.42 0,-0.63 0,-0.21 0,-0.42 0,-0.63 0,-299.05 -2.45,-798.118 -18.75,-811.13 l -2.1,-1.398 -1.5,-0.801 -1.7,-0.903 c -15.07,-6.507 -48.51,-9.91 -83.83,-9.91" /><path
         id="path316"
         style="fill:#8694d2;fill-opacity:1;fill-rule:nonzero;stroke:none"
         d="m 7202.29,2123.4 c 0,0 -178.01,-130.1 -481.91,-123.2 -25.79,0.5 -99.59,271 -99.59,271 0,0 -11.91,-261.3 -21.71,-271 l -52.39,8 c -8.3,69.9 -16.41,236.8 -22.1,422.4 -1.81,55.8 -3.3,113.3 -4.6,170.4 -5.31,240.7 -5.8,473.5 2.59,538.1 17.1,130.8 89.71,205.6 89.71,205.6 l 137.3,57.6 70.59,-21.1 c 44.61,-13.7 115,-49.9 153.81,-110.3 95.2,-148.1 228.3,-1147.5 228.3,-1147.5" /><path
         id="path318"
         style="fill:#fffdfe;fill-opacity:1;fill-rule:nonzero;stroke:none"
         d="m 6695.77,2351.11 c 0,-16.51 -13.39,-29.89 -29.89,-29.89 -16.51,0 -29.9,13.38 -29.9,29.89 0,16.51 13.39,29.89 29.9,29.89 16.5,0 29.89,-13.38 29.89,-29.89" /><path
         id="path320"
         style="fill:#fffdfe;fill-opacity:1;fill-rule:nonzero;stroke:none"
         d="m 6683.48,2500 c 0,-16.5 -13.38,-29.89 -29.89,-29.89 -16.51,0 -29.89,13.39 -29.89,29.89 0,16.51 13.38,29.89 29.89,29.89 16.51,0 29.89,-13.38 29.89,-29.89" /><path
         id="path322"
         style="fill:#7172c1;fill-opacity:1;fill-rule:nonzero;stroke:none"
         d="m 6802.48,2482.04 206.34,49.71 c 0,0 70.59,-228.44 -59.57,-260.54 -130.15,-32.1 -143.45,151.15 -146.77,210.83" /><path
         id="path324"
         style="fill:#f89d95;fill-opacity:1;fill-rule:nonzero;stroke:none"
         d="m 6820.2,3381.22 c -31.86,20.45 -70.6,21.04 -70.6,21.04 l -29.44,153.75 -129.02,-88.01 7.26,-47.13 7.07,-45.7 6.84,-30.48 c 0,0 -29.6,-25.78 -38.7,-54.14 24.79,-150.25 181.5,-64.42 246.59,90.67" /><path
         id="path326"
         style="fill:#f68380;fill-opacity:1;fill-rule:nonzero;stroke:none"
         d="m 6605.47,3375.17 c 39.74,-8.1 108.01,19.86 103.06,75.2 -43.27,-13.29 -98.27,-14.11 -110.13,-29.5 l 7.07,-45.7" /><path
         id="path328"
         style="fill:#f89d95;fill-opacity:1;fill-rule:nonzero;stroke:none"
         d="m 6453.52,3529.02 c 5.13,-20.88 12.01,-42.5 21.12,-63.27 8.57,-19.5 19.06,-38.22 31.74,-54.7 42.47,-55.16 204.13,4.84 231.37,39.8 21.59,27.86 29.39,107.4 3.32,148.13 52.97,-13.59 44.8,61.4 17.23,72.43 -27.58,11.04 -35.13,-33.16 -35.13,-33.16 0,0 -71.75,-34.54 -90.7,68.95 -114.78,-95.98 -135.65,-13.49 -190.27,-67.93 -2.54,-20.86 -0.04,-63.68 11.32,-110.25" /><path
         id="path330"
         style="fill:#f46cbd;fill-opacity:1;fill-rule:nonzero;stroke:none"
         d="m 6617.73,3549.33 c 4.21,-18.71 22.8,-30.46 41.51,-26.25 18.71,4.21 30.46,22.79 26.25,41.51 -4.21,18.71 -22.79,30.46 -41.51,26.25 -18.71,-4.21 -30.46,-22.79 -26.25,-41.51" /><path
         id="path332"
         style="fill:#f46cbd;fill-opacity:1;fill-rule:nonzero;stroke:none"
         d="m 6453.52,3529.02 c 5.13,-20.88 12.01,-42.5 21.12,-63.27 2,0.01 4.12,0.31 6.19,0.78 18.73,4.22 30.49,22.81 26.27,41.54 -4.2,18.65 -22.79,30.41 -41.52,26.19 -4.48,-1.01 -8.52,-2.79 -12.06,-5.24" /><path
         id="path334"
         style="fill:#f68380;fill-opacity:1;fill-rule:nonzero;stroke:none"
         d="m 6524.98,3579.45 c 15.49,4.08 36.59,-68.19 17.91,-79.56 -18.68,-11.37 -43.44,72.85 -17.91,79.56" /><path
         id="path336"
         style="fill:#302746;fill-opacity:1;fill-rule:nonzero;stroke:none"
         d="m 6576.02,3586.83 c 1.31,-5.87 5.37,-9.96 9.06,-9.13 3.7,0.82 5.63,6.25 4.33,12.11 -1.31,5.87 -5.37,9.96 -9.07,9.14 -3.69,-0.83 -5.63,-6.25 -4.32,-12.12" /><path
         id="path338"
         style="fill:#302746;fill-opacity:1;fill-rule:nonzero;stroke:none"
         d="m 6478.37,3565.04 c 1.3,-5.87 5.36,-9.95 9.06,-9.13 3.69,0.82 5.62,6.25 4.31,12.12 -1.3,5.87 -5.36,9.95 -9.05,9.13 -3.7,-0.82 -5.63,-6.25 -4.32,-12.12" /><path
         id="path340"
         style="fill:#fffdfe;fill-opacity:1;fill-rule:nonzero;stroke:none"
         d="m 6532.69,3540.32 c 15.83,6.41 128.59,23.92 159.33,-16.66 19.54,-25.78 -5.53,-89.79 -81.72,-114.23 -76.19,-24.44 -118.26,14.53 -128.15,52.46 -9.9,37.93 29.54,69.93 50.54,78.43" /><path
         id="path342"
         style="fill:#fffdfe;fill-opacity:1;fill-rule:nonzero;stroke:none"
         d="m 6641.17,3528.71 c 1.1,0.25 2.1,0.93 2.72,1.98 l 67.32,113.53 c 1.2,2.02 0.53,4.62 -1.49,5.82 -2.02,1.19 -4.62,0.53 -5.82,-1.49 l -67.32,-113.53 c -1.2,-2.02 -0.53,-4.62 1.49,-5.82 0.97,-0.57 2.08,-0.72 3.1,-0.49" /><path
         id="path344"
         style="fill:#fffdfe;fill-opacity:1;fill-rule:nonzero;stroke:none"
         d="m 6688.31,3508.78 2.31,1.41 63.49,75.38 c 1.51,1.79 1.28,4.47 -0.51,5.98 -1.8,1.51 -4.48,1.28 -5.99,-0.51 l -63.49,-75.38 c -1.51,-1.79 -1.28,-4.47 0.52,-5.98 1.05,-0.89 2.42,-1.18 3.67,-0.9" /><path
         id="path346"
         style="fill:#fffdfe;fill-opacity:1;fill-rule:nonzero;stroke:none"
         d="m 6493.5,3485.9 c 1.43,0.33 2.66,1.38 3.13,2.88 0.7,2.25 -0.55,4.63 -2.8,5.33 l -36.11,11.26 c -2.23,0.69 -4.62,-0.55 -5.32,-2.79 -0.7,-2.25 0.55,-4.63 2.8,-5.32 l 36.1,-11.27 2.2,-0.09" /><path
         id="path348"
         style="fill:#fffdfe;fill-opacity:1;fill-rule:nonzero;stroke:none"
         d="m 6474.19,3446.02 0.58,0.17 20.76,7.87 c 2.2,0.83 3.3,3.28 2.47,5.48 -0.84,2.19 -3.3,3.29 -5.48,2.46 l -20.77,-7.86 c -2.19,-0.83 -3.29,-3.29 -2.46,-5.49 0.76,-2 2.87,-3.09 4.9,-2.63" /><path
         id="path350"
         style="fill:#1f2b55;fill-opacity:1;fill-rule:nonzero;stroke:none"
         d="m 6640.76,3731.58 c 0,0 -30.89,-55.18 -9.53,-112.38 14.03,47.96 37.26,88 37.26,88" /><path
         id="path352"
         style="fill:#1f2b55;fill-opacity:1;fill-rule:nonzero;stroke:none"
         d="m 6550.22,3629.42 c 0,0 36.54,13.54 57.28,-10.22 0.03,26.58 -42.21,38.38 -57.28,10.22" /><path
         id="path354"
         style="fill:#1f2b55;fill-opacity:1;fill-rule:nonzero;stroke:none"
         d="m 6452.34,3586.89 c 0,0 17.72,34.7 49.08,31.24 -17.97,19.59 -57.05,-0.31 -49.08,-31.24" /><path
         id="path356"
         style="fill:#f89d95;fill-opacity:1;fill-rule:nonzero;stroke:none"
         d="m 6389.96,2570.37 c 0,0 -74.36,-47.1 -88.73,-54.44 -14.38,-7.33 -7.94,-28.66 -7.94,-28.66 0,0 -51.45,-37.19 -58.87,-45.42 -7.43,-8.24 11.55,-47.45 47.22,-44.98 35.66,2.48 163.61,82.87 163.61,82.87 l -55.29,90.63" /><path
         id="path358"
         style="fill:#7172c1;fill-opacity:1;fill-rule:nonzero;stroke:none"
         d="m 6855.68,2725 c -24.39,-28 -423.39,-272.9 -423.39,-272.9 l -28.21,47.6 -40.59,68.5 305.89,291.3 c 0,0 36.8,363 162.2,406.5 12.3,4.3 25.51,5.5 39.6,3 135.2,-24.4 9,-516.1 -15.5,-544" /><path
         id="path360"
         style="fill:#1f2b55;fill-opacity:1;fill-rule:nonzero;stroke:none"
         d="m 3890.82,3626.34 c 3.84,5.46 -23.13,137.16 114.68,155.1 137.82,17.94 192.93,-79.4 192.93,-79.4 0,0 71.61,26.74 88.08,-85.6 16.47,-112.34 -37.25,-191.55 21.12,-257.63 58.37,-66.09 146.05,-154.24 30.98,-231.24 -115.07,-77 -375.18,-69.52 -427.49,26.79 -52.31,96.3 55.18,207.15 33.86,301.75 -46.27,16.61 -113.6,85.73 -54.16,170.23" /><path
         id="path362"
         style="fill:#f38854;fill-opacity:1;fill-rule:nonzero;stroke:none"
         d="m 4049.11,3296.38 c 0,0 -121.01,-97.84 -128.33,-368.12 -147.41,-95.28 -242.24,-172.98 -242.24,-172.98 l 54.03,-101.19 358.13,101.19 -41.59,541.1" /><path
         id="path364"
         style="fill:#f89d95;fill-opacity:1;fill-rule:nonzero;stroke:none"
         d="m 4436.65,1132.29 30.01,-236.77 -118.91,-8.911 -48.88,245.681" /><path
         id="path366"
         style="fill:#6e2b3f;fill-opacity:1;fill-rule:nonzero;stroke:none"
         d="m 4202.46,839.602 c 13.26,-17.172 270.15,0 270.15,0 l -1.53,28.039 -4.42,79.629 c 0,0 -34.48,0.082 -68.9,0.851 -34.41,0.84 -55.76,0 -55.76,0 l -25.58,-43.262 c 0,0 -71.47,-27.027 -101.72,-47.757 -10.11,-6.961 -15.55,-13.172 -12.24,-17.5" /><path
         id="path368"
         style="fill:#f89d95;fill-opacity:1;fill-rule:nonzero;stroke:none"
         d="m 4114.12,1124.54 -23.73,-236.751 -119.04,-7.027 5,245.948 137.77,-2.17" /><path
         id="path370"
         style="fill:#6e2b3f;fill-opacity:1;fill-rule:nonzero;stroke:none"
         d="m 3835.35,836.031 c 12.98,-17.359 270.11,-4.242 270.11,-4.242 l -1.09,28.063 -3.17,79.679 c 0,0 -31.56,1.5 -65.97,2.809 -34.39,1.398 -58.66,0 -58.66,0 l -26.26,-42.84 c 0,0 -71.88,-25.898 -102.45,-46.148 -10.22,-6.813 -15.76,-12.922 -12.51,-17.321" /><path
         id="path372"
         style="fill:#24315f;fill-opacity:1;fill-rule:nonzero;stroke:none"
         d="m 3917.32,919.41 c 8.42,-7.48 46.74,-12.57 72.58,-15.539 54.64,-6.199 129.33,-2.641 145.14,10.027 23.29,18.602 35.04,1023.272 35.04,1023.272 0,0 0.09,-0.76 0.17,-2.37 4.17,-48.02 80.7,-997.679 107.13,-1015.691 27.28,-18.609 187.21,-18.609 210.15,4.672 23.03,23.278 -13.74,1169.919 -43.99,1336.819 30.34,199.53 0.25,309.65 0.25,309.65 -139.11,-19.72 -268.44,-34.41 -370.84,-27.44 -16.65,1.1 -32.2,2.46 -46.57,3.82 -59.14,5.69 -96.87,12.66 -96.87,12.66 0,0 -38.53,-1616.759 -12.19,-1639.88" /><path
         id="path374"
         style="fill:#d7cbd3;fill-opacity:1;fill-rule:nonzero;stroke:none"
         d="m 4072.95,2542.81 v 0 c -16.65,1.1 -32.2,2.46 -46.57,3.82 v 0 c -0.76,14.7 -0.68,23.62 -0.68,23.62 0,0 -2.49,33.32 12.17,33.32 7.32,0 18.94,-8.33 37.29,-33.32 -1.44,-9 -2.12,-18.18 -2.21,-27.44" /><path
         id="path376"
         style="fill:#1e284e;fill-opacity:1;fill-rule:nonzero;stroke:none"
         d="m 4046.1,900.891 c -19.06,0 -38.66,0.988 -56.2,2.98 15.98,245.749 94.27,1354.769 88.06,1438.979 -40.19,64.5 -49.45,159.93 -51.58,203.78 v 0 0 c 14.37,-1.36 29.92,-2.72 46.57,-3.82 v 0 0 c -0.68,-89.82 57.79,-187.13 57.79,-187.13 l 39.34,-418.51 c 0,0 -11.75,-1004.67 -35.04,-1023.272 -10.73,-8.597 -48.62,-13.007 -88.94,-13.007" /><path
         id="path378"
         style="fill:#f78e5f;fill-opacity:1;fill-rule:nonzero;stroke:none"
         d="m 4429.59,2658.8 34.2,-108.6 c 0,0 -311.41,-98.1 -534.31,-20.9 -0.69,15.7 -0.9,33.5 -0.69,52.8 0.2,31.9 1.49,67.9 3.5,106 6.59,129.2 21.09,281.3 30.6,370.3 16.5,155.4 86.19,238 86.19,238 l 140.6,22.1 c 0,0 80.71,5.4 164.11,-141.4 32.5,-57.1 117.9,-253.1 117.59,-365 -0.09,-25.4 -5.09,-44.4 -12.19,-58.5 -17.3,-34.4 -46.9,-40 -46.9,-40 l 17.3,-54.8" /><path
         id="path380"
         style="fill:#f89d95;fill-opacity:1;fill-rule:nonzero;stroke:none"
         d="m 4111.21,3254.68 c 77.3,5.51 78.51,63.8 78.51,63.8 l -9.98,175.94 -137.99,-73.15 1.99,-47.64 1.96,-46.21 0.66,-16.65 c 0,0 3.23,-60.5 64.85,-56.09" /><path
         id="path382"
         style="fill:#f68380;fill-opacity:1;fill-rule:nonzero;stroke:none"
         d="m 4045.7,3327.42 c 38.59,-12.46 109.55,7.77 110.76,63.31 -44.48,-8.41 -99.22,-3.12 -112.72,-17.1 l 1.96,-46.21" /><path
         id="path384"
         style="fill:#f89d95;fill-opacity:1;fill-rule:nonzero;stroke:none"
         d="m 3911.75,3497.18 c 2.79,-21.32 7.22,-43.57 13.98,-65.22 6.35,-20.33 14.7,-40.09 25.47,-57.88 36.09,-59.53 203.41,-17.84 234.35,13.89 24.56,25.29 41.13,103.47 19.74,146.84 51.13,-19.39 51.33,56.04 25.16,70.07 -26.18,14.04 -38.59,-29.06 -38.59,-29.06 0,0 -103.62,-48.32 -179.96,56.96 -75.73,-49.12 -99.16,-24.77 -99.16,-24.77 -4.84,-20.46 -7.11,-63.28 -0.99,-110.83" /><path
         id="path386"
         style="fill:#f46cbd;fill-opacity:1;fill-rule:nonzero;stroke:none"
         d="m 4077.2,3499.16 c 2.11,-19.07 19.28,-32.82 38.34,-30.7 19.07,2.11 32.81,19.27 30.7,38.34 -2.11,19.06 -19.28,32.8 -38.34,30.7 -19.07,-2.12 -32.81,-19.28 -30.7,-38.34" /><path
         id="path388"
         style="fill:#f46cbd;fill-opacity:1;fill-rule:nonzero;stroke:none"
         d="m 3911.75,3497.18 c 2.79,-21.32 7.22,-43.57 13.98,-65.22 1.99,-0.21 4.12,-0.14 6.23,0.09 19.09,2.12 32.84,19.28 30.72,38.37 -2.1,19 -19.27,32.75 -38.36,30.63 -4.56,-0.5 -8.78,-1.82 -12.57,-3.87" /><path
         id="path390"
         style="fill:#f68380;fill-opacity:1;fill-rule:nonzero;stroke:none"
         d="m 3988.37,3539.37 c 15.84,2.33 28.8,-71.83 8.97,-81.05 -19.82,-9.23 -35.08,77.22 -8.97,81.05" /><path
         id="path392"
         style="fill:#302746;fill-opacity:1;fill-rule:nonzero;stroke:none"
         d="m 4029.97,3539.95 c 0.66,-5.99 4.23,-10.5 7.99,-10.09 3.77,0.41 6.29,5.59 5.64,11.57 -0.64,5.97 -4.22,10.48 -7.99,10.08 -3.76,-0.41 -6.29,-5.59 -5.64,-11.56" /><path
         id="path394"
         style="fill:#302746;fill-opacity:1;fill-rule:nonzero;stroke:none"
         d="m 3940.44,3530.22 c 0.65,-5.97 4.23,-10.48 7.99,-10.07 3.77,0.41 6.29,5.58 5.64,11.56 -0.65,5.98 -4.23,10.49 -7.99,10.08 -3.76,-0.41 -6.29,-5.58 -5.64,-11.57" /><path
         id="path396"
         style="fill:#fffdfe;fill-opacity:1;fill-rule:nonzero;stroke:none"
         d="m 3991.69,3499.63 c 16.44,4.62 130.45,9.5 156.5,-34.23 16.56,-27.79 -15.46,-88.63 -93.89,-104.46 -78.43,-15.84 -115.92,27.56 -121.55,66.35 -5.62,38.79 37.12,66.22 58.94,72.34" /><path
         id="path398"
         style="fill:#fffdfe;fill-opacity:1;fill-rule:nonzero;stroke:none"
         d="m 4098.21,3476.06 c 1.12,0.12 2.19,0.69 2.92,1.66 l 79.51,105.37 c 1.41,1.87 1.04,4.53 -0.84,5.95 -1.87,1.4 -4.53,1.03 -5.95,-0.84 l -79.5,-105.36 c -1.41,-1.87 -1.04,-4.53 0.83,-5.96 0.9,-0.67 1.99,-0.94 3.03,-0.82" /><path
         id="path400"
         style="fill:#fffdfe;fill-opacity:1;fill-rule:nonzero;stroke:none"
         d="m 4142.85,3451.02 2.45,1.14 71.46,67.87 c 1.7,1.62 1.77,4.31 0.15,6.01 -1.61,1.7 -4.3,1.77 -6,0.16 l -71.46,-67.87 c -1.7,-1.62 -1.77,-4.31 -0.16,-6.01 0.96,-1 2.28,-1.44 3.56,-1.3" /><path
         id="path402"
         style="fill:#fffdfe;fill-opacity:1;fill-rule:nonzero;stroke:none"
         d="m 3946.7,3449.9 c 1.46,0.16 2.8,1.07 3.43,2.52 0.95,2.15 -0.04,4.65 -2.18,5.59 l -34.64,15.2 c -2.14,0.94 -4.66,-0.03 -5.6,-2.18 -0.95,-2.15 0.04,-4.66 2.18,-5.6 l 34.64,-15.2 2.17,-0.33" /><path
         id="path404"
         style="fill:#fffdfe;fill-opacity:1;fill-rule:nonzero;stroke:none"
         d="m 3923.09,3412.4 0.59,0.1 21.51,5.52 c 2.28,0.58 3.64,2.9 3.06,5.17 -0.58,2.28 -2.91,3.65 -5.17,3.06 l -21.51,-5.51 c -2.28,-0.58 -3.64,-2.9 -3.06,-5.18 0.53,-2.07 2.51,-3.39 4.58,-3.16" /><path
         id="path406"
         style="fill:#1f2b55;fill-opacity:1;fill-rule:nonzero;stroke:none"
         d="m 3920.14,3540.99 c 0,0 25.11,33.46 46.51,33.47 -14.6,16.08 -49.63,-1.96 -46.51,-33.47" /><path
         id="path408"
         style="fill:#1f2b55;fill-opacity:1;fill-rule:nonzero;stroke:none"
         d="m 4069.62,3557.53 c 0,0 -31.82,27.17 -52.71,22.49 10.73,18.89 48.85,8.95 52.71,-22.49" /><path
         id="path410"
         style="fill:#f89d95;fill-opacity:1;fill-rule:nonzero;stroke:none"
         d="m 3225.71,2493.94 c 0,0 -110.93,-37.75 -108.35,-91.64 154.79,27.61 183.17,45.82 183.17,45.82 l -74.82,45.82" /><path
         id="path412"
         style="fill:#24315f;fill-opacity:1;fill-rule:nonzero;stroke:none"
         d="m 3447.19,2678.3 -221.48,-184.36 46.44,-64.03 193.35,21.64 -18.31,226.75" /><path
         id="path414"
         style="fill:#dbe0e5;fill-opacity:1;fill-rule:nonzero;stroke:none"
         d="m 3385.7,3299.49 c -15.93,49.73 37.81,63.21 37.81,63.21 0,0 -25.22,110.6 36.36,154.98 111.23,80.15 292.31,8.32 303.32,-145.97 74.34,-35.5 54.53,-225.92 -69.79,-202.92 -124.33,23.01 -291.77,80.97 -307.7,130.7" /><path
         id="path416"
         style="fill:#1f2b55;fill-opacity:1;fill-rule:nonzero;stroke:none"
         d="m 3613.54,921.449 v -93.051 c 0,0 -271.88,-5.738 -284.49,11.942 -12.61,17.68 111.04,82.109 111.04,82.109 l 173.45,-1" /><path
         id="path418"
         style="fill:#f89d95;fill-opacity:1;fill-rule:nonzero;stroke:none"
         d="m 3440.09,922.449 v 220.841 h 181.07 l -7.62,-221.841" /><path
         id="path420"
         style="fill:#1f2b55;fill-opacity:1;fill-rule:nonzero;stroke:none"
         d="m 3864.05,921.449 v -93.051 c 0,0 -271.87,-5.738 -284.48,11.942 -12.61,17.68 111.05,82.109 111.05,82.109 l 173.43,-1" /><path
         id="path422"
         style="fill:#f89d95;fill-opacity:1;fill-rule:nonzero;stroke:none"
         d="m 3690.62,922.449 v 220.841 h 181.06 l -7.63,-221.841" /><path
         id="path424"
         style="fill:#5ac58e;fill-opacity:1;fill-rule:nonzero;stroke:none"
         d="m 3979.99,1032.4 -321.7,12.3 -276.8,10.6 24.89,1297.3 1,49.7 472.21,-7.2 c 0,0 129.69,-129.4 130.29,-348.9 0.71,-219.4 -29.89,-1013.8 -29.89,-1013.8" /><path
         id="path426"
         style="fill:#4db38f;fill-opacity:1;fill-rule:nonzero;stroke:none"
         d="m 3979.99,1032.4 -321.7,12.3 c 166.5,235.5 256.39,525 250,813.6 -1.91,85.4 -12.21,172.1 -46.51,250.3 -34.29,78.3 -94.89,147.8 -174.69,178.4 -89.91,34.4 -200.31,19.9 -280.71,65.6 l 1,49.7 472.21,-7.2 c 0,0 129.69,-129.4 130.29,-348.9 0.71,-219.4 -29.89,-1013.8 -29.89,-1013.8" /><path
         id="path428"
         style="fill:#24315f;fill-opacity:1;fill-rule:nonzero;stroke:none"
         d="m 3693.4,3082.54 c 0,0 106.26,-6.39 172.83,-113.76 66.56,-107.36 56.95,-398.53 13.34,-573.68 -225.52,-94.66 -472.22,7.22 -472.22,7.22 0,0 5.31,188.51 5.06,289.42 -0.25,100.93 38.4,296.32 122.14,350 83.74,53.68 158.85,40.8 158.85,40.8" /><path
         id="path430"
         style="fill:#60407a;fill-opacity:1;fill-rule:nonzero;stroke:none"
         d="m 3682.86,3106.94 c 0,0 55.11,6.1 49.28,-57.26 -5.84,-63.35 -134.35,-125.69 -134.35,-125.69 l -23.74,60.53 -38.97,-60.53 c 0,0 -79.42,129 23.75,167.8 103.18,38.8 124.03,15.15 124.03,15.15" /><path
         id="path432"
         style="fill:#f89d95;fill-opacity:1;fill-rule:nonzero;stroke:none"
         d="m 3594.65,2998.26 c 77.5,0.08 98.75,84.29 98.75,84.29 l -12.92,133.08 -142.76,-63.31 -1.36,-47.67 -1.28,-46.23 -0.5,-16.65 c 0,0 -1.7,-43.6 60.07,-43.51" /><path
         id="path434"
         style="fill:#f68380;fill-opacity:1;fill-rule:nonzero;stroke:none"
         d="m 3535.08,3058.42 c 27.11,4.76 81.33,21.25 86.42,76.57 -44.95,-5.27 -70.7,-17.34 -85.14,-30.34 l -1.28,-46.23" /><path
         id="path436"
         style="fill:#f89d95;fill-opacity:1;fill-rule:nonzero;stroke:none"
         d="m 3667.96,3105.06 c -36.03,-25.81 -208.11,-37.3 -233.1,27.72 -33.04,85.95 15.04,243.44 30.64,279.59 0,0 62.97,-79.18 198.1,-88.39 5.43,-45.94 44.64,-40.51 44.64,-40.51 0,0 20.97,31.95 44.27,13.52 23.3,-18.44 7.74,-79.02 -39.22,-50.89 13.42,-46.45 -16.65,-120.48 -45.33,-141.04" /><path
         id="path438"
         style="fill:#f68380;fill-opacity:1;fill-rule:nonzero;stroke:none"
         d="m 3501.34,3284.35 c -15.32,4.21 -28.09,-69.12 -3.44,-68.72 13.89,0.23 29.19,61.64 3.44,68.72" /><path
         id="path440"
         style="fill:#302746;fill-opacity:1;fill-rule:nonzero;stroke:none"
         d="m 3551.64,3281.42 c -0.41,-6 2.31,-11.07 6.09,-11.34 3.77,-0.26 7.17,4.39 7.59,10.39 0.42,6 -2.31,11.07 -6.09,11.34 -3.77,0.26 -7.17,-4.39 -7.59,-10.39" /><path
         id="path442"
         style="fill:#302746;fill-opacity:1;fill-rule:nonzero;stroke:none"
         d="m 3458.66,3287.86 c -0.41,-5.99 2.31,-11.07 6.09,-11.33 3.78,-0.27 7.17,4.39 7.59,10.38 0.41,6.01 -2.31,11.08 -6.09,11.34 -3.77,0.26 -7.17,-4.39 -7.59,-10.39" /><path
         id="path444"
         style="fill:#fffdfe;fill-opacity:1;fill-rule:nonzero;stroke:none"
         d="m 3496.87,3249.17 c 16.99,1.65 102.5,-30.57 113.75,-60.9 11.26,-30.32 3.38,-84.93 -76.62,-86.67 -80,-1.74 -109.23,47.6 -107.92,86.78 1.32,39.17 48.23,58.62 70.79,60.79" /><path
         id="path446"
         style="fill:#fffdfe;fill-opacity:1;fill-rule:nonzero;stroke:none"
         d="m 3574.33,3211.53 c 1.03,-0.26 2.16,-0.13 3.15,0.45 l 125.55,72.92 c 2.03,1.18 2.72,3.78 1.55,5.81 -1.18,2.04 -3.78,2.71 -5.81,1.54 l -125.55,-72.92 c -2.04,-1.18 -2.72,-3.78 -1.54,-5.81 0.6,-1.04 1.57,-1.72 2.65,-1.99" /><path
         id="path448"
         style="fill:#fffdfe;fill-opacity:1;fill-rule:nonzero;stroke:none"
         d="m 3599.61,3177.22 2,-0.01 125.93,29.64 c 2.29,0.53 3.7,2.82 3.16,5.11 -0.53,2.28 -2.82,3.69 -5.1,3.16 l -125.95,-29.64 c -2.28,-0.53 -3.69,-2.82 -3.15,-5.11 0.37,-1.6 1.61,-2.78 3.11,-3.15" /><path
         id="path450"
         style="fill:#fffdfe;fill-opacity:1;fill-rule:nonzero;stroke:none"
         d="m 3443.07,3208.28 c 1.69,-0.42 3.53,0.23 4.55,1.75 1.31,1.96 0.79,4.59 -1.16,5.9 l -31.41,21.08 c -1.96,1.28 -4.59,0.79 -5.9,-1.16 -1.3,-1.95 -0.78,-4.59 1.16,-5.9 l 31.41,-21.08 1.35,-0.59" /><path
         id="path452"
         style="fill:#fffdfe;fill-opacity:1;fill-rule:nonzero;stroke:none"
         d="m 3413.2,3175.54 1.34,-0.12 22.15,1.64 c 2.33,0.17 4.09,2.2 3.92,4.55 -0.16,2.34 -2.19,4.11 -4.55,3.92 l -22.15,-1.63 c -2.34,-0.17 -4.09,-2.21 -3.92,-4.55 0.13,-1.87 1.48,-3.38 3.21,-3.81" /><path
         id="path454"
         style="fill:#dbe0e5;fill-opacity:1;fill-rule:nonzero;stroke:none"
         d="m 3448.34,3315.33 c 0.17,-9.91 41.63,-17.65 40.65,0 -0.99,17.64 -40.98,18.74 -40.65,0" /><path
         id="path456"
         style="fill:#dbe0e5;fill-opacity:1;fill-rule:nonzero;stroke:none"
         d="m 3538.15,3316.85 c -1.33,-9.82 38.49,-23.73 40.18,-6.13 1.69,17.6 -37.67,24.7 -40.18,6.13" /><path
         id="path458"
         style="fill:#a8c0cf;fill-opacity:1;fill-rule:nonzero;stroke:none"
         d="m 3327.77,832.039 c -13.8,0 -25,11.191 -25,25 V 2406.2 c -90.33,-5.75 -392.28,-40.57 -392.28,-248.18 V 877.73 c 0,-13.8 -11.19,-25 -25,-25 -13.81,0 -25,11.2 -25,25 v 1280.29 c 0,122.76 82.52,213.57 238.65,262.59 112.84,35.43 223.78,36.68 228.44,36.71 l 25.19,0.2 V 857.039 c 0,-13.809 -11.19,-25 -25,-25" /><path
         id="path460"
         style="fill:#a8c0cf;fill-opacity:1;fill-rule:nonzero;stroke:none"
         d="m 3545.26,832.039 c -13.81,0 -25,11.191 -25,25 V 2406.2 c -90.33,-5.75 -392.29,-40.57 -392.29,-248.18 V 877.73 c 0,-13.8 -11.19,-25 -25,-25 -13.8,0 -25,11.2 -25,25 v 1280.29 c 0,122.76 82.53,213.57 238.66,262.59 112.83,35.43 223.77,36.68 228.43,36.71 l 25.2,0.2 V 857.039 c 0,-13.809 -11.19,-25 -25,-25" /><path
         id="path462"
         style="fill:#a8c0cf;fill-opacity:1;fill-rule:nonzero;stroke:none"
         d="m 3352.77,2457.52 h 217.49 l -246.14,-55.22 z" /><path
         id="path464"
         style="fill:#a8c0cf;fill-opacity:1;fill-rule:nonzero;stroke:none"
         d="m 3540.63,1767.23 h -434 c -13.81,0 -25,11.19 -25,25 0,13.81 11.19,25 25,25 h 434 c 13.81,0 25,-11.19 25,-25 0,-13.81 -11.19,-25 -25,-25" /><path
         id="path466"
         style="fill:#a8c0cf;fill-opacity:1;fill-rule:nonzero;stroke:none"
         d="m 3102.97,1715.4 h -217.48 c -13.81,0 -25,11.19 -25,25 0,13.81 11.19,25 25,25 h 217.48 c 13.81,0 25,-11.19 25,-25 0,-13.81 -11.19,-25 -25,-25" /><path
         id="path468"
         style="fill:#7172c1;fill-opacity:1;fill-rule:nonzero;stroke:none"
         d="m 2885.49,806.781 c -19.33,0 -35,15.668 -35,35 v 93.739 c 0,19.32 15.67,35 35,35 19.33,0 35,-15.68 35,-35 v -93.739 c 0,-19.332 -15.67,-35 -35,-35" /><path
         id="path470"
         style="fill:#7172c1;fill-opacity:1;fill-rule:nonzero;stroke:none"
         d="m 3102.97,806.781 c -19.33,0 -35,15.668 -35,35 v 93.739 c 0,19.32 15.67,35 35,35 19.34,0 35,-15.68 35,-35 v -93.739 c 0,-19.332 -15.66,-35 -35,-35" /><path
         id="path472"
         style="fill:#7172c1;fill-opacity:1;fill-rule:nonzero;stroke:none"
         d="m 3327.77,806.781 c -19.33,0 -35,15.668 -35,35 v 93.739 c 0,19.32 15.67,35 35,35 19.34,0 35,-15.68 35,-35 v -93.739 c 0,-19.332 -15.66,-35 -35,-35" /><path
         id="path474"
         style="fill:#7172c1;fill-opacity:1;fill-rule:nonzero;stroke:none"
         d="m 3545.26,806.781 c -19.33,0 -35,15.668 -35,35 v 93.739 c 0,19.32 15.67,35 35,35 19.33,0 35,-15.68 35,-35 v -93.739 c 0,-19.332 -15.67,-35 -35,-35" /><path
         id="path476"
         style="fill:#f89d95;fill-opacity:1;fill-rule:nonzero;stroke:none"
         d="m 3520.38,2537.49 24.68,-80.17 h -138.68 c 0,0 -1.49,64 114,80.17" /><path
         id="path478"
         style="fill:#f89d95;fill-opacity:1;fill-rule:nonzero;stroke:none"
         d="m 3859.08,2757.26 h -64.97 c 0,0 -29.53,37.43 -42.82,29.05 -13.3,-8.38 11.9,-34.95 11.9,-34.95 0,0 -63.59,-11.82 -81.31,-19.2 -17.72,-7.38 8.86,-64.98 39.87,-73.84 31.01,-8.86 162.87,-11.81 162.87,-11.81 l -25.54,110.75" /><path
         id="path480"
         style="fill:#f38854;fill-opacity:1;fill-rule:nonzero;stroke:none"
         d="m 3932.29,2688.1 516.29,86.4 10.61,-20.9 c -17.3,-34.4 -46.9,-40 -46.9,-40 l 17.3,-54.8 -500.8,-76.7 3.5,106" /><path
         id="path482"
         style="fill:#f78e5f;fill-opacity:1;fill-rule:nonzero;stroke:none"
         d="m 4412.29,2713.6 -544.83,-82.29 -18.21,138.31 398.4,107.79 64.42,120.85 c 0,0 155.51,-89.44 159.31,-186.16 3.81,-96.72 -59.09,-98.5 -59.09,-98.5" /><path
         id="path484"
         style="fill:#f38854;fill-opacity:1;fill-rule:nonzero;stroke:none"
         d="m 3990.95,2787.53 c 19.48,25.7 227.14,121.57 227.14,121.57 0,0 -45.99,168.93 -13.39,257.77 15.9,-71.43 42.95,-289.46 42.95,-289.46 l -256.7,-89.88" /></g></g></svg>